<?xml version="1.0" encoding="UTF-8"?>
<svg width="57px" height="75px" viewBox="0 0 57 75" version="1.1" xmlns="http://www.w3.org/2000/svg" xmlns:xlink="http://www.w3.org/1999/xlink">
    <!-- Generator: Sketch 40.3 (33839) - http://www.bohemiancoding.com/sketch -->
    <title>Page 1</title>
    <desc>Created with Sketch.</desc>
    <defs>
        <polygon id="path-1" points="28.3723658 73.8592147 0 73.8592147 0 0.00346215069 28.3723658 0.00346215069 56.7447317 0.00346215069 56.7447317 73.8592147 28.3723658 73.8592147"></polygon>
        <polygon id="path-3" points="0 74.1442651 56.7447889 74.1442651 56.7447889 0.288512557 0 0.288512557"></polygon>
    </defs>
    <g id="Page-1" stroke="none" stroke-width="1" fill="none" fill-rule="evenodd">
        <g id="TAKLA-HOME" transform="translate(-674.000000, -874.000000)">
            <g id="CALL-TO-ACTION-(BELOW-SLIDER)" transform="translate(-156.000000, 819.000000)">
                <g id="Group-4">
                    <g id="Page-1" transform="translate(830.000000, 55.000000)">
                        <g id="Group-3" transform="translate(0.000000, 0.285050)">
                            <mask id="mask-2" fill="white">
                                <use xlink:href="#path-1"></use>
                            </mask>
                            <g id="Clip-2"></g>
                            <path d="M30.1956211,3.64939534 C29.7290231,3.17940838 29.0845508,2.88887624 28.3724804,2.88887624 C27.6604101,2.88887624 27.0156513,3.17940838 26.5496261,3.64939534 C26.0833146,4.11880527 25.794591,4.76824704 25.794591,5.48520074 C25.794591,6.20273147 26.0833146,6.85217324 26.5496261,7.32187168 C26.9867216,7.76185333 27.5804955,8.04488415 28.2398623,8.07864012 L28.5050985,8.07864012 C29.1644653,8.04488415 29.7585256,7.76185333 30.1956211,7.32187168 C30.6616462,6.85217324 30.9503698,6.20273147 30.9503698,5.48520074 C30.9503698,4.76824704 30.6616462,4.11880527 30.1956211,3.64939534 L30.1956211,3.64939534 Z M28.3724804,0.00346215069 C30.0335005,0.00346215069 31.5372693,0.105018571 32.6257116,1.2016548 C33.7141538,2.29800252 34.3875558,3.81269345 34.3875558,5.48520074 L34.3875558,5.48548926 L41.2619276,5.48548926 L41.2619276,14.1405775 L15.4830332,14.1405775 L15.4830332,5.48548926 L22.357405,5.48548926 L22.357405,5.48520074 C22.357405,3.81269345 23.030807,2.29800252 24.1195357,1.2016548 C25.2079779,0.105018571 26.7117467,0.00346215069 28.3724804,0.00346215069 L28.3724804,0.00346215069 Z M16.915194,24.239671 L39.6736613,24.239671 L37.1092342,26.5477715 L19.2066513,26.5477715 L19.2066513,45.0125752 L37.5383095,45.0125752 L37.5383095,36.9506688 L39.8297668,34.8880925 L39.8297668,47.3206756 L16.915194,47.3206756 L16.915194,24.239671 Z M5.72858593,8.07864012 L13.1915759,8.07864012 L13.1915759,11.5410793 L5.72858593,11.5410793 C5.10015377,11.5410793 4.52757588,11.8010291 4.11138995,12.2202379 C3.69549045,12.6391581 3.43712864,13.2158947 3.43712864,13.8488913 L3.43712864,68.0889636 C3.43712864,69.3538026 4.47200804,70.3967755 5.72858593,70.3967755 L51.0163749,70.3967755 C52.2720935,70.3967755 53.3075457,69.3535141 53.3075457,68.0889636 L53.3075457,13.8488913 C53.3075457,13.2158947 53.0491839,12.6394466 52.632998,12.2202379 C52.2173849,11.8010291 51.6445206,11.5410793 51.0163749,11.5410793 L43.5533849,11.5410793 L43.5533849,8.07864012 L51.0163749,8.07864012 C52.5931839,8.07864012 54.0259176,8.72779338 55.0630884,9.77249735 C56.1008322,10.8177783 56.7447317,12.2609182 56.7447317,13.8488913 L56.7447317,68.0889636 C56.7447317,71.2640443 54.1691337,73.8592147 51.0163749,73.8592147 L5.72858593,73.8592147 C2.57496784,73.8592147 -5.72864321e-05,71.2649098 -5.72864321e-05,68.0889636 L-5.72864321e-05,13.8488913 C-5.72864321e-05,12.2603411 0.643842211,10.8174898 1.6812995,9.77249735 C2.71875678,8.72750486 4.15149045,8.07864012 5.72858593,8.07864012 L5.72858593,8.07864012 Z" id="Fill-1" fill="#424242" mask="url(#mask-2)"></path>
                        </g>
                        <mask id="mask-4" fill="white">
                            <use xlink:href="#path-3"></use>
                        </mask>
                        <g id="Clip-5"></g>
                        <path d="M11.7600452,54.8116157 L44.985603,54.8116157 L44.985603,52.5035152 L11.7600452,52.5035152 L11.7600452,54.8116157 Z M11.7600452,60.8715334 L44.985603,60.8715334 L44.985603,58.563433 L11.7600452,58.563433 L11.7600452,60.8715334 Z M21.862794,34.0439048 C21.2400905,33.3266625 21.3122714,32.2369506 22.0240553,31.6097243 C22.7358392,30.9822095 23.8179799,31.0546261 24.4406834,31.7718684 L29.1015075,37.1229108 L42.1333116,25.3940098 C42.8379347,24.7592821 43.9197889,24.8195813 44.5499397,25.5293222 C45.1800905,26.2390631 45.1202261,27.328775 44.415603,27.9635026 L30.1398241,40.8121208 C29.4085628,41.493299 28.3103819,41.4474255 27.6639045,40.7042171 L21.862794,34.0439048 Z" id="Fill-4" fill="#424242" mask="url(#mask-4)"></path>
                    </g>
                </g>
            </g>
        </g>
    </g>
</svg>