<?xml version="1.0" encoding="UTF-8" standalone="no"?>
<svg width="132px" height="54px" viewBox="0 0 132 54" version="1.1" xmlns="http://www.w3.org/2000/svg" xmlns:xlink="http://www.w3.org/1999/xlink">
    <!-- Generator: Sketch 41.1 (35376) - http://www.bohemiancoding.com/sketch -->
    <title>Page 1</title>
    <desc>Created with Sketch.</desc>
    <defs>
        <polygon id="path-1" points="37.7097924 0.202426181 0.293343092 0.202426181 0.293343092 33.5063218 37.7097924 33.5063218"></polygon>
        <polygon id="path-3" points="0.275636871 10.5494615 9.1028288 10.5494615 9.1028288 0.378288119 0.275636871 0.378288119"></polygon>
        <polygon id="path-5" points="9.06441447 10.343143 9.06441447 0.583951616 0.527680269 0.583951616 0.527680269 10.343143 9.06441447 10.343143"></polygon>
    </defs>
    <g id="Page-1" stroke="none" stroke-width="1" fill="none" fill-rule="evenodd">
        <g id="MENU-SCROLL" transform="translate(-19.000000, -15.000000)">
            <g id="HEADER" transform="translate(19.000000, 15.000000)">
                <g id="Page-1">
                    <g id="Group-3" transform="translate(10.635492, 0.522837)">
                        <mask id="mask-2" fill="white">
                            <use xlink:href="#path-1"></use>
                        </mask>
                        <g id="Clip-2"></g>
                        <path d="M17.8744253,2.77960593 C18.5114224,3.58031811 19.4012734,4.22056036 19.5601175,5.00981041 C19.8097296,6.26573319 18.3898581,6.07415175 17.6961309,6.40491629 C12.1041713,9.05921985 7.85590284,13.2445375 4.60932454,18.4237862 C3.4568946,20.2626406 2.71778341,22.5043072 2.32877753,24.6624639 C1.66260495,28.3483599 3.34019283,30.8143569 6.97091445,31.4644238 C8.79275869,31.790276 10.841523,31.6199814 12.6406753,31.1287469 C19.6816818,29.2031078 25.6350928,25.3927658 30.4701118,19.8631032 C32.6128859,17.4134807 34.2726443,14.6691174 34.891812,11.3958585 C35.6503735,7.38574777 34.1818763,4.30407022 30.4652492,2.93680096 C26.2493979,1.3861375 21.9233282,1.68251563 17.8744253,2.77960593 L17.8744253,2.77960593 Z M7.35992034,33.5063218 C6.48465709,33.2312305 5.58994355,33.0085375 4.73899317,32.6712232 C1.87817904,31.5397464 0.377264659,28.7904709 0.299463482,25.7382674 C0.119548259,18.6759532 3.93180595,13.6653617 8.35836878,8.9216742 C9.54807845,7.64773949 10.8480065,6.47860146 12.0409578,5.16700543 C8.50262513,6.29356981 5.68395331,8.62529607 2.89121521,10.999596 C2.74695886,10.9340981 2.60270251,10.8686001 2.45844616,10.8031022 C2.60108165,10.2987682 2.60756508,9.68308762 2.90742378,9.30483708 C5.21552538,6.38854181 8.19304128,4.34828133 11.5190416,2.77960593 C16.2081834,0.570688285 21.1825962,-0.174350655 26.2526396,0.375831947 C31.0422746,0.896540481 35.7460041,3.03177296 37.2615062,8.52704918 C38.3961067,12.6468689 37.2923025,16.3049282 34.9047789,19.6289481 C31.4620768,24.4184841 26.7307927,27.5574724 21.5262181,30.084055 C18.0754117,31.760802 14.4446901,32.7973067 10.7037501,33.5063218 L7.35992034,33.5063218 Z" id="Fill-1" fill="#221F20" mask="url(#mask-2)"></path>
                    </g>
                    <path d="M81.6617367,5.86816076 C81.4899258,5.68312911 81.3148731,5.49973491 81.1414413,5.31470326 C76.2205169,9.29042754 71.6934609,13.6591394 68.1535073,19.0217823 C72.8231988,14.8053531 77.7117061,10.8148918 81.6617367,5.86816076 M107.747823,31.079951 C108.198422,30.7082502 108.590669,30.4560832 108.897011,30.1220438 C111.684887,27.0600156 114.4679,23.9947125 117.223358,20.9032103 C117.495662,20.5970075 117.81173,19.868343 117.691786,19.7488093 C117.304401,19.3509094 116.728997,18.9235354 116.221668,18.9186231 C115.574946,18.9137107 114.822868,19.1675152 114.291226,19.5555904 C111.352611,21.6990101 108.909978,24.3140149 107.653813,27.806692 C107.3264,28.7203881 106.616464,29.878064 107.747823,31.079951 M104.864317,29.1493995 C103.969603,29.9910479 103.271014,30.6967881 102.518936,31.3386678 C101.774962,31.9723603 101.009917,32.5929531 100.197867,33.1316736 C99.025987,33.9078241 97.646637,33.7735533 96.5817334,32.8844189 C95.5314175,32.0034718 95.7745461,30.9080189 96.2932207,29.958299 C97.726059,27.3449316 99.2707366,24.7954247 100.773272,22.2197187 C100.95805,21.9036912 101.152553,21.5942135 101.345435,21.2814608 C101.266013,21.1914012 101.188211,21.1013415 101.11041,21.0112819 C99.93853,21.9855636 98.6094265,22.8222996 97.6320493,23.9652385 C95.2412839,26.7587251 92.9899123,29.6782953 90.7336782,32.5847659 C90.1355816,33.3543666 89.5634188,33.958585 88.5374158,33.5148365 C87.6021808,33.1120242 87.0964731,32.486519 87.668636,31.4189028 C88.1970356,30.4315215 88.717331,29.4408653 89.0641946,28.2750022 C88.6589801,28.771149 88.2634908,29.2787579 87.8453095,29.7650801 C86.9635628,30.7917601 86.0639867,31.8020657 85.1838609,32.8287457 C84.5744183,33.5426731 83.8985206,33.9520352 83.0216365,33.3068806 C82.0264297,32.5765787 80.6827386,31.9477985 81.1252328,30.3873104 C81.5255847,28.9676428 82.2160701,27.631485 82.8579298,26.0595347 C82.537,26.3149767 82.2728001,26.4672594 82.0831598,26.6866774 C80.6503214,28.3388627 79.2806965,30.0483586 77.7943699,31.649783 C76.3907069,33.1627851 75.2480022,33.4804501 74.1425771,32.8958811 C72.9091043,32.2425392 72.4763352,30.9145687 72.8620994,28.9496309 C72.9204503,28.6483404 72.9836637,28.3486874 73.0468772,28.0326599 C71.1034686,29.6422714 69.2232735,31.2174966 67.3252489,32.771435 C65.8599934,33.9700471 64.359079,33.8406887 62.8030555,32.9073432 C61.1189842,31.8970376 60.6294851,30.9260309 60.9487941,28.9414436 C61.029837,28.4403845 61.1416762,27.9426002 61.3118662,27.079665 C59.6115863,28.7400375 58.1479517,30.16298 56.6891796,31.5891974 C56.3244866,31.9461611 55.9695187,32.3129495 55.6096883,32.676463 C54.7506336,33.5443106 53.8461949,34.0420948 52.6581061,33.2233707 C51.3581781,32.3244116 50.7827736,31.1028753 51.4927093,29.7568928 C52.510608,27.8296163 53.7829815,26.0366105 54.9645868,24.1993936 C55.3179339,23.6508484 55.7296318,23.1448769 56.1056708,22.6307182 C54.9208237,20.8835609 54.2173714,20.7460153 52.6872815,21.9855636 C52.1086353,22.4538738 51.5883399,22.9942317 51.0323857,23.4920159 C50.4861566,23.981613 49.9269606,24.4564729 49.0646642,24.8150741 C49.1181525,24.5252458 49.0808728,24.1650072 49.2397169,23.9554138 C49.83133,23.1759884 50.538024,22.4849853 51.1053243,21.6891855 C51.9303409,20.5298721 52.7553576,19.3558217 53.4296344,18.1048113 C54.2870683,16.5148491 55.1007389,14.9003251 57.1024984,14.6530705 C58.6098962,14.4664014 59.1561253,15.3064123 58.4883318,16.7113429 C58.1511934,17.4203579 57.642244,18.0491381 57.1900247,18.7008425 C56.8464028,19.1937144 56.4703638,19.6620246 55.7993286,20.547884 C56.8528863,20.613382 57.5725471,20.6068322 58.2743786,20.7149038 C59.0378027,20.8311626 60.1205357,20.8066009 60.4609159,21.2830983 C61.0039032,22.0412368 60.4495699,22.8959848 59.7315298,23.5788007 C57.8448513,25.3750814 55.9646561,27.1860991 54.2222339,29.1215629 C53.5819951,29.8322154 53.3372456,30.9063815 52.9125808,31.8135278 C53.0795292,31.9445236 53.2464775,32.077157 53.4150467,32.2081528 C54.2384425,31.7398426 55.1412604,31.3714168 55.8706464,30.7852103 C59.1512627,28.1489187 62.0817737,25.26046 64.1013626,21.4075444 C67.2409643,15.4177588 71.1942366,9.96669365 76.1086777,5.30815347 C77.2724536,4.20451337 78.6566662,3.27608023 80.0700543,2.51957915 C81.7200876,1.63699457 83.9568715,2.60472646 84.4852711,4.37153309 C84.6311483,4.85785521 84.2956307,5.6995036 83.9033831,6.10559075 C81.4737172,8.61579887 79.0489138,11.1440189 76.4604038,13.482295 C73.1749249,16.4493512 69.5668953,19.0692683 66.4127059,22.1656829 C64.1127086,24.4220865 63.3914269,27.5659871 63.7447739,30.809772 C63.8630965,31.8904879 64.8404738,32.1131808 65.6752156,31.6104842 C67.3317323,30.6132782 69.0482208,29.6389966 70.4810592,28.358512 C73.3888782,25.7582443 76.0292556,22.8534111 78.9662501,20.2908047 C80.6114208,18.8564 82.4867534,17.449832 84.5014797,16.7490042 C87.9117646,15.5634917 89.4742716,18.2538191 88.6298047,20.8442622 C88.1759645,20.6346688 87.6978114,20.4922108 87.3088055,20.2203944 C85.7997868,19.1626029 84.3199436,19.1085671 82.7671618,20.1417969 C79.0910561,22.5865071 76.4328493,25.8679533 74.7795742,29.9763109 C74.6158676,30.382398 74.6304553,30.8605329 74.5623793,31.3042814 L74.8897926,31.6072093 C76.2804886,30.5870791 77.8397539,29.7339686 79.0229801,28.5107947 C81.0555359,26.4083112 82.8595507,24.0814973 84.7429875,21.8332809 C85.2357283,21.2470744 85.546933,20.3039043 86.56159,21.1209909 C87.496825,21.8709422 87.6978114,22.9794946 87.0316388,23.7752945 C85.0558131,26.1446821 83.950388,28.9037823 83.3036657,31.8675636 L83.6262165,32.1410174 C84.2551093,31.5793727 84.9439739,31.0750386 85.4966864,30.4446211 C87.3136681,28.3748865 88.9410094,26.115208 90.9087308,24.2075808 C92.4712378,22.6913038 93.6171843,20.9408716 94.7436805,19.141316 C95.0257098,18.6926552 95.3790568,18.019664 95.2364213,17.6168517 C94.7793394,16.3216302 95.6027352,15.8009217 96.4099224,15.2720259 C97.0631281,14.8430144 97.7698222,14.4631265 98.5008291,14.194585 C99.5835621,13.7983225 100.16545,14.0373899 101.089339,15.1197432 C97.9497374,18.3225919 95.2558716,21.8807669 93.3675722,26.0104113 C96.5363493,23.2807851 99.7261976,20.5740832 102.864178,17.8084332 C103.865869,16.9242111 104.942118,16.4559009 106.264738,16.5279487 C107.501453,16.595084 108.047682,17.3663222 107.516041,18.5108985 C107.211319,19.1691526 106.681299,19.7307974 106.214492,20.3039043 C104.044163,22.9794946 101.776583,25.5797624 99.7278185,28.3454125 C99.0389539,29.2738456 98.8930767,30.6132782 98.7228866,31.8888504 C101.765237,30.3103503 104.522316,28.5222569 106.298776,25.6190612 C108.119,22.6470927 110.109413,19.8257694 112.874597,17.687262 C113.683405,17.0601193 114.704545,16.5983589 115.698131,16.3592915 C117.160145,16.0088776 118.450348,16.4984746 119.353165,18.1211858 C120.847596,15.9089932 122.21398,13.8572706 123.61278,11.8284723 C124.593399,10.4055298 125.585364,8.98749962 126.637301,7.62023036 C127.442867,6.57390094 129.608333,6.56407626 130.315027,7.65625422 C130.532222,7.9919311 130.353928,8.85650376 130.052448,9.22165471 C129.081554,10.3973425 128.008546,11.4960703 126.901501,12.5456746 C122.888256,16.3625664 120.085793,21.0489432 117.518354,25.892515 C116.52801,27.7657558 115.745136,29.750343 114.866631,31.6858068 C115.030338,31.8118903 115.192423,31.9379739 115.35613,32.0673323 C118.273674,29.3049571 121.191218,26.5458569 124.107142,23.7851192 L124.473455,24.0782224 C124.301645,24.453198 124.210877,24.9051338 123.943435,25.1884123 C121.513769,27.7690307 119.069515,30.3381869 116.587982,32.8696819 C116.057961,33.4116772 115.437173,34.0404574 114.526251,33.4067649 C113.488902,32.6846502 112.279742,31.9952845 112.801658,30.4577207 C113.320333,28.9250691 114.064306,27.4677402 114.829351,25.7058459 C113.738514,26.92247 112.832454,27.9851739 111.872906,28.9922045 C110.908496,30.0041475 109.916531,30.9948037 108.887286,31.9396113 C106.888769,33.7735533 105.454309,32.2736507 105.075029,30.572342 C104.995607,30.2121034 104.96481,29.8387652 104.864317,29.1493995" id="Fill-4" fill="#221F20"></path>
                    <path d="M2.77231529,52.2004131 C2.77231529,52.7162093 2.90360478,52.8946911 3.47252589,52.8946911 C4.97506113,52.8946911 5.77738577,52.7162093 6.65426987,52.1267279 C7.67541033,51.4340873 8.17139283,50.2698616 8.17139283,48.6045768 C8.17139283,47.0702878 7.70458577,46.0534325 6.78555936,45.2428956 C5.92488384,44.4765698 5.00423657,44.2260403 3.54546449,44.2260403 C2.9911311,44.2260403 2.77231529,44.3586736 2.77231529,44.8449957 L2.77231529,52.2004131 Z M3.93933295,43.68077 C5.82276979,43.68077 7.32530503,44.1523551 8.31727004,45.0218401 C9.26547189,45.847114 9.7614544,46.9966027 9.7614544,48.5161546 C9.7614544,50.2698616 9.07583152,51.6551428 7.77752437,52.4967912 C6.87308569,53.0846351 5.57477854,53.4399614 4.09979788,53.4399614 L0.000648343145,53.4399614 L0.000648343145,53.1599577 C1.13849056,53.0846351 1.28436777,52.8946911 1.28436777,51.7452025 L1.28436777,45.3313178 C1.28436777,44.1670921 1.10931512,44.0344588 0.000648343145,43.9607737 L0.000648343145,43.68077 L3.93933295,43.68077 Z" id="Fill-6" fill="#221F20"></path>
                    <path d="M21.5483328,53.4396339 L13.6823096,53.4396339 L13.6823096,53.1596303 C14.8071849,53.0843076 14.9530621,52.8943636 14.9530621,51.759612 L14.9530621,45.3309903 C14.9530621,44.2404498 14.7780095,44.0193943 13.6823096,43.9604462 L13.6823096,43.6804425 L21.4170433,43.6804425 L21.4753942,45.7878384 L21.1107012,45.7878384 C20.8918853,44.4631428 20.5563678,44.2404498 18.8641922,44.2404498 L16.9515799,44.2404498 C16.5431237,44.2404498 16.4410097,44.2993979 16.4410097,44.770983 L16.4410097,48.014768 L18.6437555,48.014768 C19.8999203,48.014768 20.1187361,47.7642384 20.2937888,46.5983752 L20.6293064,46.5983752 L20.6293064,50.0484786 L20.2937888,50.0484786 C20.1187361,48.8105678 19.8999203,48.6189863 18.6437555,48.6189863 L16.4410097,48.6189863 L16.4410097,52.2000856 C16.4410097,52.8206785 16.8348781,52.8943636 17.9143695,52.8943636 L18.4411483,52.8943636 C20.5271923,52.8943636 21.1544643,52.5112008 21.8109118,50.9490752 L22.2193679,50.9490752 L21.5483328,53.4396339 Z" id="Fill-8" fill="#221F20"></path>
                    <path d="M35.9468994,43.9604462 C35.3925661,44.0193943 35.1737502,44.0636054 34.9841099,44.2257128 C34.7069432,44.4762424 34.561066,44.8020945 34.561066,45.9663202 L34.561066,53.6017413 L34.298487,53.6017413 L27.8636813,45.5078347 L27.8636813,51.2274414 C27.8636813,52.7453559 28.0970848,52.9975229 29.2203393,53.1596303 L29.2203393,53.4396339 L25.8051918,53.4396339 L25.8051918,53.1596303 C27.0013849,53.026997 27.2218216,52.804304 27.2218216,51.2274414 L27.2218216,44.7431464 C26.7388059,44.1372906 26.521611,43.9604462 25.8051918,43.9604462 L25.8051918,43.6804425 L28.2867252,43.6804425 L33.9192063,50.8017048 L33.9192063,45.7878384 C33.9192063,45.0362496 33.8608554,44.5941386 33.6420396,44.343609 C33.3940483,44.0636054 33.1314693,44.0341313 32.4896096,43.9604462 L32.4896096,43.6804425 L35.9468994,43.6804425 L35.9468994,43.9604462 Z" id="Fill-10" fill="#221F20"></path>
                    <path d="M47.6744544,46.1862295 C47.3535246,44.5651558 46.9742438,44.2998892 45.4279454,44.2998892 L44.5672699,44.2998892 L44.5672699,51.8026769 C44.5672699,52.9226915 44.7698771,53.1011734 45.9676911,53.1601215 L45.9676911,53.4401251 L41.7064558,53.4401251 L41.7064558,53.1601215 C42.9172366,53.0847989 43.0777015,52.9226915 43.0777015,51.6258325 L43.0777015,44.2998892 L42.2024383,44.2998892 C40.6561399,44.2998892 40.2622714,44.5651558 39.970517,46.1862295 L39.6187908,46.1862295 L39.7225258,43.6809338 L47.9224457,43.6809338 L48.0245597,46.1862295 L47.6744544,46.1862295 Z" id="Fill-12" fill="#221F20"></path>
                    <path d="M55.5508511,45.5962569 L53.8732632,49.6522162 L57.2430267,49.6522162 L55.5508511,45.5962569 Z M57.3159653,53.4396339 L57.3159653,53.1596303 C57.8411233,53.1596303 57.9448582,53.1301562 58.11829,53.026997 C58.2349918,52.9680488 58.3225181,52.804304 58.3225181,52.6716707 C58.3225181,52.4522526 58.220404,52.0527153 58.0469722,51.6400783 L57.4472548,50.2547971 L53.625272,50.2547971 L52.952616,51.934819 C52.8812982,52.1264004 52.8213265,52.3785675 52.8213265,52.5554119 C52.8213265,53.0106225 53.1438772,53.1596303 53.8440878,53.1596303 L53.8440878,53.4396339 L50.9395105,53.4396339 L50.9395105,53.1596303 C51.7855983,53.0695706 51.9168878,52.7617303 52.7791842,50.6969081 L55.7842547,43.5035981 L56.0760091,43.5035981 L59.6662093,51.8021857 C60.0746654,52.7617303 60.2788935,53.0695706 61.037455,53.1596303 L61.037455,53.4396339 L57.3159653,53.4396339 Z" id="Fill-14" fill="#221F20"></path>
                    <path d="M72.4875191,53.4396339 L64.6377045,53.4396339 L64.6377045,53.1596303 C65.7171958,53.1006821 65.9068362,52.8632521 65.9068362,51.744875 L65.9068362,45.3899385 C65.9068362,44.2551868 65.7755467,44.0488684 64.6377045,43.9604462 L64.6377045,43.6804425 L68.7676503,43.6804425 L68.7676503,43.9604462 C67.5714572,44.0341313 67.3947837,44.2257128 67.3947837,45.3604644 L67.3947837,52.2000856 C67.3947837,52.7617303 67.6443958,52.8632521 68.7092994,52.8632521 L69.7304399,52.8632521 C70.9120453,52.8632521 71.6997822,52.5979855 72.1957647,51.9659305 C72.3870259,51.7137635 72.5766663,51.3895487 72.808449,50.87539 L73.1893506,50.87539 L72.4875191,53.4396339 Z" id="Fill-16" fill="#221F20"></path>
                    <g id="Group-20" transform="translate(83.574096, 43.096491)">
                        <mask id="mask-4" fill="white">
                            <use xlink:href="#path-3"></use>
                        </mask>
                        <g id="Clip-19"></g>
                        <path d="M9.1028288,8.67687569 C8.25836185,9.90004951 6.84173208,10.5501165 5.12038103,10.5501165 C3.79289844,10.5501165 2.52214587,10.0768939 1.67605807,9.23688298 C0.786207098,8.35266094 0.275636871,7.00995341 0.275636871,5.55262449 C0.275636871,4.07728365 0.757031657,2.85410983 1.58853174,1.91093965 C2.52214587,0.86461024 3.77831071,0.378288119 5.13496875,0.378288119 C5.70388986,0.378288119 6.28739869,0.437236255 6.87090752,0.597706181 C7.17887051,0.686128384 7.629469,0.86461024 7.87746025,0.86461024 C8.15462695,0.86461024 8.4026182,0.686128384 8.49014452,0.378288119 L8.7835198,0.378288119 L8.91480929,3.72523228 L8.57929171,3.72523228 C8.4026182,2.91142051 8.18542325,2.48568398 7.81910937,2.08778406 C7.17887051,1.39514346 6.41868817,0.967769478 5.47048632,0.967769478 C3.26611963,0.967769478 1.96943334,2.76568762 1.96943334,5.3151945 C1.96943334,6.93790568 2.3325055,8.08739433 3.01812838,8.83898307 C3.66160895,9.53162366 4.6098108,9.90004951 5.61636353,9.90004951 C6.9292584,9.90004951 7.73158304,9.45957594 8.8256621,8.41160908 L9.1028288,8.67687569 Z" id="Fill-18" fill="#221F20" mask="url(#mask-4)"></path>
                    </g>
                    <path d="M100.976041,45.5962569 L99.2984532,49.6522162 L102.669838,49.6522162 L100.976041,45.5962569 Z M102.742776,53.4396339 L102.742776,53.1596303 C103.267934,53.1596303 103.370048,53.1301562 103.545101,53.026997 C103.661803,52.9680488 103.749329,52.804304 103.749329,52.6716707 C103.749329,52.4522526 103.645594,52.0527153 103.472162,51.6400783 L102.874066,50.2547971 L99.0520828,50.2547971 L98.377806,51.934819 C98.3064882,52.1264004 98.2465165,52.3785675 98.2465165,52.5554119 C98.2465165,53.0106225 98.5690672,53.1596303 99.2692778,53.1596303 L99.2692778,53.4396339 L96.3647005,53.4396339 L96.3647005,53.1596303 C97.2124092,53.0695706 97.3436986,52.7617303 98.2043742,50.6969081 L101.211066,43.5035981 L101.501199,43.5035981 L105.091399,51.8021857 C105.499855,52.7617303 105.704083,53.0695706 106.464266,53.1596303 L106.464266,53.4396339 L102.742776,53.4396339 Z" id="Fill-21" fill="#221F20"></path>
                    <path d="M112.864871,48.3833575 C114.265293,48.352246 114.775863,48.2507242 115.446898,47.8806609 C115.972056,47.5875577 116.278398,46.9374908 116.278398,46.2006391 C116.278398,44.874306 115.417723,44.2258765 113.608845,44.2258765 C113.111242,44.2258765 112.864871,44.3290358 112.864871,44.8448319 L112.864871,48.3833575 Z M117.153661,53.4397976 L113.681784,48.8975163 L112.864871,48.9286278 L112.864871,51.7876124 C112.864871,52.9092644 113.038303,53.0844714 114.163179,53.159794 L114.163179,53.4397976 L110.135347,53.4397976 L110.135347,53.159794 C111.229426,53.0697343 111.375303,52.9092644 111.375303,51.6124054 L111.375303,45.316417 C111.375303,44.2258765 111.260222,44.0490321 110.135347,43.9606099 L110.135347,43.6806063 L114.104828,43.6806063 C115.490661,43.6806063 116.52801,44.0342951 117.153661,44.5500913 C117.635056,44.9479912 117.870081,45.6701058 117.870081,46.3185353 C117.870081,47.6006573 117.051547,48.4570427 115.228082,48.7370464 L118.147247,52.465516 C118.570291,53.0107862 118.876633,53.1008459 119.516872,53.159794 L119.516872,53.4397976 L117.153661,53.4397976 Z" id="Fill-23" fill="#221F20"></path>
                    <g id="Group-27" transform="translate(122.474685, 43.096491)">
                        <mask id="mask-6" fill="white">
                            <use xlink:href="#path-5"></use>
                        </mask>
                        <g id="Clip-26"></g>
                        <path d="M8.39370348,10.343143 L0.527680269,10.343143 L0.527680269,10.0631394 C1.65093477,9.98781674 1.79843283,9.79787274 1.79843283,8.66312113 L1.79843283,2.23449942 C1.79843283,1.14395891 1.62175933,0.922903397 0.527680269,0.863955261 L0.527680269,0.583951616 L8.26241399,0.583951616 L8.31914402,2.69134747 L7.954451,2.69134747 C7.73725605,1.36665186 7.40173847,1.14395891 5.707942,1.14395891 L3.79695058,1.14395891 C3.38687354,1.14395891 3.28638035,1.20290704 3.28638035,1.67449213 L3.28638035,4.91827705 L5.48912619,4.91827705 C6.74367018,4.91827705 6.96248599,4.66774747 7.1391595,3.50188434 L7.47467707,3.50188434 L7.47467707,6.95198774 L7.1391595,6.95198774 C6.96248599,5.71407688 6.74367018,5.52249544 5.48912619,5.52249544 L3.28638035,5.52249544 L3.28638035,9.1035947 C3.28638035,9.72418757 3.68024881,9.79787274 4.75974015,9.79787274 L5.2848981,9.79787274 C7.37094217,9.79787274 7.99983502,9.41470986 8.6546616,7.85258426 L9.06473864,7.85258426 L8.39370348,10.343143 Z" id="Fill-25" fill="#221F20" mask="url(#mask-6)"></path>
                    </g>
                </g>
            </g>
        </g>
    </g>
</svg>