<?xml version="1.0" encoding="UTF-8" standalone="no"?>
<svg width="174px" height="71px" viewBox="0 0 174 71" version="1.1" xmlns="http://www.w3.org/2000/svg" xmlns:xlink="http://www.w3.org/1999/xlink">
    <!-- Generator: Sketch 41.1 (35376) - http://www.bohemiancoding.com/sketch -->
    <title>Page 1</title>
    <desc>Created with Sketch.</desc>
    <defs>
        <polygon id="path-1" points="49.7083627 0.266152941 0.38667953 0.266152941 0.38667953 44.0546082 49.7083627 44.0546082"></polygon>
        <polygon id="path-3" points="0.363339512 13.8705882 11.9991834 13.8705882 11.9991834 0.497378824 0.363339512 0.497378824"></polygon>
        <polygon id="path-5" points="11.9485463 13.5993176 11.9485463 0.767788235 0.695578537 0.767788235 0.695578537 13.5993176 11.9485463 13.5993176"></polygon>
    </defs>
    <g id="Page-1" stroke="none" stroke-width="1" fill="none" fill-rule="evenodd">
        <g id="TAKLA-HOME" transform="translate(-35.000000, -19.000000)">
            <g id="HEADER" transform="translate(35.000000, 19.000000)">
                <g id="Page-1">
                    <g id="Group-3" transform="translate(14.019512, 0.687434)">
                        <mask id="mask-2" fill="white">
                            <use xlink:href="#path-1"></use>
                        </mask>
                        <g id="Clip-2"></g>
                        <path d="M23.5617424,3.65466706 C24.4014205,4.70745529 25.5744059,5.54925529 25.7837912,6.58697294 C26.1128254,8.23827882 24.2411766,7.98638471 23.326718,8.42127882 C15.9554985,11.9111965 10.3555083,17.4141141 6.0759278,24.2238671 C4.55681561,26.64162 3.58253268,29.5889965 3.0697522,32.4265729 C2.19161561,37.2728435 4.40298146,40.5151729 9.18893268,41.3698906 C11.5904546,41.7983259 14.2910985,41.57442 16.6627083,40.9285376 C25.9440351,38.3966788 33.7917132,33.3867847 40.1651473,26.1163024 C42.9897132,22.8955024 45.1775766,19.2871729 45.9937522,14.9834435 C46.9936741,9.71089059 45.0579278,5.65905529 40.1587376,3.86134941 C34.601479,1.82251412 28.8989327,2.21219647 23.5617424,3.65466706 L23.5617424,3.65466706 Z M9.70171317,44.0546082 C8.54795707,43.6929141 7.36856195,43.4001141 6.24685463,42.9566082 C2.47578146,41.4689259 0.497303415,37.8541376 0.394747317,33.8410553 C0.157586341,24.55542 5.18283512,17.96742 11.0178498,11.7303494 C12.5861034,10.0553612 14.2996449,8.51816118 15.8721717,6.79365529 C11.2080059,8.27487882 7.4924839,11.3406671 3.81114732,14.4624318 C3.62099122,14.3763141 3.43083512,14.2901965 3.24067902,14.2040788 C3.42869854,13.5409729 3.43724488,12.7314671 3.83251317,12.2341376 C6.87501073,8.39974941 10.799918,5.71718471 15.1841912,3.65466706 C21.3653327,0.750349412 27.9225132,-0.229238824 34.6057522,0.494149412 C40.919362,1.17878471 47.1197327,3.98622 49.11744,11.2114906 C50.6130498,16.6282906 49.1580351,21.4379612 46.0108449,25.8084318 C41.4727376,32.1057847 35.2360449,36.2329729 28.3754693,39.5549612 C23.826679,41.7595729 19.0407278,43.1223847 14.1094888,44.0546082 L9.70171317,44.0546082 Z" id="Fill-1" fill="#221F20" mask="url(#mask-2)"></path>
                    </g>
                    <path d="M107.645017,7.71554471 C107.418539,7.47226235 107.187787,7.23113294 106.959173,6.98785059 C100.4725,12.2151918 94.5050166,17.9592388 89.8387141,25.0101212 C95.9942166,19.4662976 102.438158,14.21958 107.645017,7.71554471 M142.031221,40.86438 C142.625192,40.3756624 143.142246,40.0441094 143.54606,39.6049094 C147.220987,35.5789094 150.889504,31.5486035 154.5217,27.4838506 C154.880646,27.0812506 155.29728,26.1231918 155.139173,25.9660271 C154.628529,25.4428624 153.870041,24.8809447 153.20129,24.8744859 C152.348792,24.8680271 151.357417,25.2017329 150.656617,25.71198 C146.782987,28.53018 143.563153,31.9684271 141.9073,36.5606506 C141.475709,37.7619918 140.539885,39.2841212 142.031221,40.86438 M138.230236,38.3260624 C137.050841,39.4326741 136.129973,40.3605918 135.138597,41.2045447 C134.157904,42.0377329 133.149436,42.8536976 132.079007,43.5620153 C130.534256,44.5825094 128.716021,44.4059682 127.312285,43.2369212 C125.927778,42.0786388 126.248265,40.6383212 126.931973,39.3896153 C128.820714,35.9535212 130.85688,32.6013918 132.837495,29.2148153 C133.081065,28.7992976 133.337456,28.3923918 133.591709,27.98118 C133.487017,27.8627682 133.38446,27.7443565 133.281904,27.6259447 C131.737153,28.9069447 129.985153,30.0070976 128.696792,31.5098506 C125.545329,35.1827682 122.577612,39.0214624 119.603485,42.8429329 C118.815085,43.8548153 118.06087,44.6492506 116.708412,44.0658035 C115.475602,43.53618 114.808987,42.7137565 115.563202,41.3100388 C116.259729,40.0118153 116.945573,38.7092859 117.402802,37.1763918 C116.868656,37.8287329 116.347329,38.4961447 115.79609,39.1355682 C114.633787,40.4854624 113.447982,41.8138271 112.287817,43.1637212 C111.48446,44.1024035 110.593504,44.6406388 109.437612,43.79238 C108.125748,42.8321682 106.354519,42.0054388 106.937807,39.9536859 C107.465543,38.0870859 108.375729,36.3302859 109.221817,34.2634624 C108.798773,34.5993212 108.450509,34.7995447 108.200529,35.0880388 C106.311787,37.2603565 104.506373,39.5080271 102.547124,41.6136035 C100.696841,43.6029212 99.1905483,44.0205918 97.7333971,43.2519918 C96.1074556,42.3929682 95.5369873,40.6469329 96.0454946,38.0634035 C96.1224117,37.6672624 96.2057385,37.2732741 96.2890654,36.8577565 C93.7272995,38.9740976 91.2488605,41.0452271 88.746919,43.0883682 C86.8154459,44.6643212 84.8369678,44.4942388 82.7858459,43.2670624 C80.5659337,41.9386976 79.9206849,40.6620035 80.3415922,38.0526388 C80.4484215,37.3938388 80.5958459,36.7393447 80.8201873,35.6047447 C78.5789093,37.7878271 76.6495727,39.6587329 74.7266459,41.5339447 C74.2459141,42.0032859 73.778002,42.4855447 73.30368,42.9634976 C72.1712898,44.1045565 70.9790751,44.7590506 69.412958,43.68258 C67.6994166,42.5006153 66.9409288,40.8945212 67.8767532,39.1248035 C69.2185288,36.5907918 70.8957483,34.2333212 72.453319,31.8177212 C72.9190946,31.0964859 73.4617873,30.4312271 73.9574751,29.7552035 C72.3956312,27.4580153 71.4683532,27.2771682 69.4514166,28.9069447 C68.6886556,29.5226859 68.0028117,30.2331565 67.2699629,30.8876506 C66.5499337,31.53138 65.8128117,32.1557329 64.6761483,32.6272271 C64.7466556,32.2461565 64.6975141,31.7725094 64.9068995,31.4969329 C65.6867532,30.4721329 66.6183044,29.5635918 67.3661093,28.5172624 C68.4536312,26.99298 69.5411532,25.4493212 70.4299727,23.8044741 C71.5602263,21.7139682 72.6327922,19.5911682 75.2714751,19.2660741 C77.2584995,19.0206388 77.9785288,20.1250976 77.0982556,21.9723212 C76.6538459,22.9045447 75.982958,23.7312741 75.3868507,24.5881447 C74.9338946,25.23618 74.4382068,25.8519212 73.5536605,27.0166624 C74.942441,27.10278 75.8910849,27.0941682 76.8162263,27.2362624 C77.822558,27.3891212 79.2497971,27.3568271 79.69848,27.9833329 C80.4142361,28.9801447 79.6835239,30.10398 78.7370166,31.0017565 C76.2500312,33.3635329 73.7715922,35.7446859 71.4747629,38.2894624 C70.6308117,39.2238388 70.3081873,40.6361682 69.748402,41.8288976 C69.9684702,42.0011329 70.1885385,42.1755212 70.4107434,42.3477565 C71.4961288,41.7320153 72.6862068,41.2476035 73.6476702,40.4768506 C77.972119,37.0106153 81.8350654,33.2128271 84.4972507,28.1469565 C88.6358166,20.2714976 93.8469483,13.1043565 100.325075,6.97923882 C101.859143,5.52815647 103.683787,4.30743882 105.54689,3.31278 C107.721934,2.15234471 110.670421,3.42473294 111.366948,5.74775647 C111.559241,6.38718 111.116968,7.49379176 110.599914,8.02772118 C107.397173,11.32818 104.200841,14.6523212 100.788714,17.7267212 C96.4578556,21.6278506 91.7018166,25.0725565 87.5440215,29.1437682 C84.5122068,32.1105212 83.5614263,36.2441682 84.027202,40.5091447 C84.1831727,41.9300859 85.4715337,42.2228859 86.5718751,41.5619329 C88.7554654,40.2507918 91.0181093,38.9697918 92.9068507,37.2861918 C96.7398849,33.8673212 100.220382,30.0480035 104.091875,26.6786506 C106.260509,24.7926741 108.732539,22.9432976 111.388314,22.0218388 C115.88369,20.4631094 117.943358,24.0003918 116.830197,27.4063447 C116.231953,27.1307682 115.60166,26.9434624 115.08888,26.5860741 C113.099719,25.1952741 111.149017,25.1242271 109.102168,26.4827329 C104.256392,29.6970741 100.752392,34.0115682 98.5730751,39.4132976 C98.35728,39.9472271 98.3765093,40.5758859 98.2867727,41.1593329 L98.7183629,41.5576271 C100.551553,40.2163447 102.606948,39.0946624 104.166656,37.4864153 C106.845934,34.7220388 109.223953,31.6627094 111.706665,28.7067212 C112.356187,27.9359682 112.766412,26.6958741 114.103914,27.7701918 C115.336724,28.7562388 115.60166,30.21378 114.723524,31.2601094 C112.119026,34.3754153 110.661875,38.0031212 109.809378,41.8999447 L110.234558,42.2594859 C111.063553,41.5210271 111.971602,40.8579212 112.700178,40.0290388 C115.09529,37.3077212 117.240421,34.3366624 119.834236,31.8284859 C121.893904,29.8348624 123.40447,27.5333682 124.889397,25.1672859 C125.261163,24.57738 125.726939,23.6925212 125.538919,23.1628976 C124.936402,21.4599212 126.021787,20.7752859 127.085807,20.0798859 C127.946851,19.5158153 128.878402,19.0163329 129.842002,18.6632506 C131.269241,18.1422388 132.036275,18.4565682 133.254129,19.8796624 C129.115563,24.0908153 125.564558,28.7691565 123.075436,34.1988741 C127.25246,30.6099212 131.45726,27.0511094 135.59369,23.4147918 C136.9141,22.2522035 138.332792,21.6364624 140.076246,21.7311918 C141.70646,21.8194624 142.42649,22.8334976 141.72569,24.3384035 C141.324012,25.2038859 140.625348,25.9423447 140.010012,26.6958741 C137.149124,30.21378 134.160041,33.6326506 131.459397,37.2689682 C130.551348,38.4896859 130.359056,40.2507918 130.134714,41.9279329 C134.145085,39.8524976 137.779417,37.5014859 140.121114,33.6843212 C142.5205,29.7767329 145.144226,26.0672153 148.789241,23.2554741 C149.855397,22.4308976 151.201446,21.8237682 152.511173,21.5094388 C154.438373,21.0487094 156.139095,21.6924388 157.329173,23.8260035 C159.299104,20.91738 161.100246,18.2197447 162.944119,15.5522506 C164.236753,13.6813447 165.544343,11.8168976 166.930987,10.0191918 C167.99287,8.64346235 170.847348,8.63054471 171.7789,10.0665565 C172.065202,10.5079094 171.830178,11.6446624 171.432773,12.1247682 C170.152958,13.67058 168.738539,15.1152035 167.279251,16.4952388 C161.989065,21.5137447 158.294909,27.6754624 154.910558,34.0438624 C153.605104,36.5068271 152.573134,39.1161918 151.415104,41.6609682 C151.6309,41.8267447 151.844558,41.9925212 152.060353,42.1626035 C155.906207,38.5305918 159.75206,34.9028859 163.595778,31.2730271 L164.078646,31.6584035 C163.852168,32.1514271 163.732519,32.7456388 163.379982,33.1180976 C160.177241,36.5111329 156.95527,39.8890976 153.684158,43.2175447 C152.985495,43.9301682 152.167182,44.7568976 150.966421,43.9237094 C149.599007,42.9742624 148.005114,42.0678741 148.693095,40.0462624 C149.376802,38.0311094 150.357495,36.1149918 151.365963,33.7984271 C149.928041,35.3980624 148.73369,36.7953212 147.468831,38.11938 C146.197563,39.4498976 144.889973,40.7524271 143.533241,41.9946741 C140.898831,44.4059682 139.007953,42.4338741 138.507992,40.1969682 C138.4033,39.7233212 138.362704,39.2324506 138.230236,38.3260624" id="Fill-4" fill="#221F20"></path>
                    <path d="M3.65441561,68.6338765 C3.65441561,69.3120529 3.82747902,69.5467235 4.57742049,69.5467235 C6.55803512,69.5467235 7.61564488,69.3120529 8.77153756,68.5369941 C10.1175863,67.6263 10.7713815,66.0955588 10.7713815,63.9060176 C10.7713815,61.8887118 10.1560449,60.5517353 8.94460098,59.4860294 C7.81007415,58.4784529 6.59649366,58.1490529 4.67356683,58.1490529 C3.94285463,58.1490529 3.65441561,58.3234412 3.65441561,58.9628647 L3.65441561,68.6338765 Z M5.19275707,57.4321235 C7.67546927,57.4321235 9.6560839,58.0521706 10.9636741,59.1953824 C12.2135766,60.2804647 12.8673717,61.7918294 12.8673717,63.7897588 C12.8673717,66.0955588 11.9635961,67.9169471 10.2521912,69.0235588 C9.05997659,69.7964647 7.34857171,70.2636529 5.40427902,70.2636529 L0.000854634146,70.2636529 L0.000854634146,69.8955 C1.50073756,69.7964647 1.69303024,69.5467235 1.69303024,68.0353588 L1.69303024,59.6022882 C1.69303024,58.0715471 1.46227902,57.8971588 0.000854634146,57.8002765 L0.000854634146,57.4321235 L5.19275707,57.4321235 Z" id="Fill-6" fill="#221F20"></path>
                    <path d="M28.4046205,70.2632224 L18.0357717,70.2632224 L18.0357717,69.8950694 C19.518562,69.7960341 19.7108546,69.5462929 19.7108546,68.0543047 L19.7108546,59.6018576 C19.7108546,58.1679988 19.4801034,57.8773518 18.0357717,57.7998459 L18.0357717,57.4316929 L28.2315571,57.4316929 L28.3084741,60.2025282 L27.8277424,60.2025282 C27.5393034,58.4607988 27.0970302,58.1679988 24.8664351,58.1679988 L22.3452644,58.1679988 C21.8068449,58.1679988 21.67224,58.2455047 21.67224,58.8655518 L21.67224,63.1305282 L24.5758595,63.1305282 C26.2317132,63.1305282 26.5201522,62.8011282 26.7509034,61.2682341 L27.1931766,61.2682341 L27.1931766,65.8044812 L26.7509034,65.8044812 C26.5201522,64.1768576 26.2317132,63.9249635 24.5758595,63.9249635 L21.67224,63.9249635 L21.67224,68.6334459 C21.67224,69.4494106 22.1914302,69.5462929 23.6143961,69.5462929 L24.3087863,69.5462929 C27.0585717,69.5462929 27.8854302,69.0425047 28.7507473,66.9885988 L29.2891668,66.9885988 L28.4046205,70.2632224 Z" id="Fill-8" fill="#221F20"></path>
                    <path d="M47.3845493,57.7998459 C46.6538371,57.8773518 46.365398,57.9354812 46.1154176,58.1486224 C45.7500615,58.4780224 45.5577688,58.9064576 45.5577688,60.4371988 L45.5577688,70.4763635 L45.211642,70.4763635 L36.729398,59.8343753 L36.729398,67.3545988 C36.729398,69.3503753 37.0370663,69.6819282 38.51772,69.8950694 L38.51772,70.2632224 L34.0159346,70.2632224 L34.0159346,69.8950694 C35.5927346,69.7206812 35.8833102,69.4278812 35.8833102,67.3545988 L35.8833102,58.8289518 C35.2466078,58.0323635 34.9603054,57.7998459 34.0159346,57.7998459 L34.0159346,57.4316929 L37.2870468,57.4316929 L44.711681,66.7948341 L44.711681,60.2025282 C44.711681,59.2143282 44.6347639,58.6330341 44.3463249,58.3036341 C44.0194273,57.9354812 43.6733005,57.8967282 42.8272127,57.7998459 L42.8272127,57.4316929 L47.3845493,57.4316929 L47.3845493,57.7998459 Z" id="Fill-10" fill="#221F20"></path>
                    <path d="M62.843599,60.7263388 C62.4205551,58.5949271 61.9205941,58.2461506 59.8822917,58.2461506 L58.7477649,58.2461506 L58.7477649,68.1109271 C58.7477649,69.5835388 59.014838,69.8182094 60.5937746,69.8957153 L60.5937746,70.2638682 L54.9766917,70.2638682 L54.9766917,69.8957153 C56.572721,69.79668 56.7842429,69.5835388 56.7842429,67.8784094 L56.7842429,58.2461506 L55.6304868,58.2461506 C53.5921844,58.2461506 53.0729941,58.5949271 52.6884088,60.7263388 L52.2247698,60.7263388 L52.3615112,57.4323388 L63.1704966,57.4323388 L63.3051015,60.7263388 L62.843599,60.7263388 Z" id="Fill-12" fill="#221F20"></path>
                    <path d="M73.226122,59.9506341 L71.0147561,65.2834694 L75.4567171,65.2834694 L73.226122,59.9506341 Z M75.5528634,70.2632224 L75.5528634,69.8950694 C76.2451171,69.8950694 76.3818585,69.8563165 76.6104732,69.7206812 C76.7643073,69.6431753 76.8796829,69.4278812 76.8796829,69.2534929 C76.8796829,68.9649988 76.745078,68.4396812 76.5164634,67.89714 L75.7259268,66.0757518 L70.6878585,66.0757518 L69.8011756,68.2846694 C69.7071659,68.5365635 69.6281122,68.8681165 69.6281122,69.1006341 C69.6281122,69.6991518 70.0532927,69.8950694 70.9762976,69.8950694 L70.9762976,70.2632224 L67.1475366,70.2632224 L67.1475366,69.8950694 C68.2628341,69.7766576 68.4358976,69.3719047 69.572561,66.6570459 L73.5337902,57.1991753 L73.9183756,57.1991753 L78.6509122,68.1102812 C79.1893317,69.3719047 79.4585415,69.7766576 80.4584634,69.8950694 L80.4584634,70.2632224 L75.5528634,70.2632224 Z" id="Fill-14" fill="#221F20"></path>
                    <path d="M95.5517298,70.2632224 L85.2042468,70.2632224 L85.2042468,69.8950694 C86.6272127,69.8175635 86.8771932,69.5053871 86.8771932,68.0349282 L86.8771932,59.6793635 C86.8771932,58.1873753 86.7041298,57.9161047 85.2042468,57.7998459 L85.2042468,57.4316929 L90.6482663,57.4316929 L90.6482663,57.7998459 C89.0714663,57.8967282 88.8385785,58.1486224 88.8385785,59.6406106 L88.8385785,68.6334459 C88.8385785,69.3719047 89.1676127,69.5053871 90.5713493,69.5053871 L91.917398,69.5053871 C93.4749688,69.5053871 94.5133493,69.1566106 95.1671444,68.3255753 C95.4192615,67.9940224 95.669242,67.56774 95.9747737,66.8917165 L96.4768712,66.8917165 L95.5517298,70.2632224 Z" id="Fill-16" fill="#221F20"></path>
                    <g id="Group-20" transform="translate(110.165854, 56.663905)">
                        <mask id="mask-4" fill="white">
                            <use xlink:href="#path-3"></use>
                        </mask>
                        <g id="Clip-19"></g>
                        <path d="M11.9991834,11.4084847 C10.8860224,13.0167318 9.01864683,13.8714494 6.74959317,13.8714494 C4.99972976,13.8714494 3.32464683,13.2492494 2.20934927,12.1447906 C1.0363639,10.9822024 0.363339512,9.21679059 0.363339512,7.30067294 C0.363339512,5.36087294 0.997905366,3.75262588 2.09397366,2.51253176 C3.32464683,1.13680235 4.98050049,0.497378824 6.76882244,0.497378824 C7.5187639,0.497378824 8.28793463,0.574884706 9.05710537,0.785872941 C9.46305659,0.902131765 10.0570273,1.13680235 10.3839249,1.13680235 C10.749281,1.13680235 11.0761785,0.902131765 11.1915541,0.497378824 L11.5782761,0.497378824 L11.7513395,4.89799059 L11.3090663,4.89799059 C11.0761785,3.82797882 10.7898761,3.26821412 10.3070078,2.74504941 C9.46305659,1.83435529 8.46099805,1.27243765 7.21109561,1.27243765 C4.30533951,1.27243765 2.59607122,3.63636706 2.59607122,6.98849647 C2.59607122,9.12206118 3.07466634,10.6334259 3.97844195,11.6216259 C4.82666634,12.53232 6.07656878,13.0167318 7.40338829,13.0167318 C9.13402244,13.0167318 10.1916322,12.4375906 11.6338273,11.0597082 L11.9991834,11.4084847 Z" id="Fill-18" fill="#221F20" mask="url(#mask-4)"></path>
                    </g>
                    <path d="M133.104781,59.9506341 L130.893416,65.2834694 L135.337513,65.2834694 L133.104781,59.9506341 Z M135.43366,70.2632224 L135.43366,69.8950694 C136.125913,69.8950694 136.260518,69.8563165 136.491269,69.7206812 C136.645103,69.6431753 136.760479,69.4278812 136.760479,69.2534929 C136.760479,68.9649988 136.623738,68.4396812 136.395123,67.89714 L135.606723,66.0757518 L130.568655,66.0757518 L129.679835,68.2846694 C129.585825,68.5365635 129.506772,68.8681165 129.506772,69.1006341 C129.506772,69.6991518 129.931952,69.8950694 130.854957,69.8950694 L130.854957,70.2632224 L127.026196,70.2632224 L127.026196,69.8950694 C128.14363,69.7766576 128.316694,69.3719047 129.45122,66.6570459 L133.414586,57.1991753 L133.797035,57.1991753 L138.529572,68.1102812 C139.067991,69.3719047 139.337201,69.7766576 140.33926,69.8950694 L140.33926,70.2632224 L135.43366,70.2632224 Z" id="Fill-21" fill="#221F20"></path>
                    <path d="M148.776421,63.6151553 C150.622431,63.5742494 151.295456,63.4407671 152.180002,62.9542024 C152.872256,62.5688259 153.27607,61.7141082 153.27607,60.7452847 C153.27607,59.0014024 152.141543,58.1488376 149.757114,58.1488376 C149.101182,58.1488376 148.776421,58.2844729 148.776421,58.9626494 L148.776421,63.6151553 Z M154.429826,70.2634376 L149.85326,64.2911788 L148.776421,64.3320847 L148.776421,68.09112 C148.776421,69.5658847 149.005036,69.7962494 150.487826,69.8952847 L150.487826,70.2634376 L145.178412,70.2634376 L145.178412,69.8952847 C146.620607,69.7768729 146.8129,69.5658847 146.8129,67.8607553 L146.8129,59.5826965 C146.8129,58.1488376 146.661202,57.91632 145.178412,57.8000612 L145.178412,57.4319082 L150.410909,57.4319082 C152.23769,57.4319082 153.605104,57.8969435 154.429826,58.57512 C155.064392,59.0982847 155.374197,60.0477318 155.374197,60.9002965 C155.374197,62.5860494 154.295221,63.7120376 151.891563,64.0801906 L155.739553,68.9824376 C156.297202,69.6993671 156.701017,69.8177788 157.544968,69.8952847 L157.544968,70.2634376 L154.429826,70.2634376 Z" id="Fill-23" fill="#221F20"></path>
                    <g id="Group-27" transform="translate(161.443902, 56.663905)">
                        <mask id="mask-6" fill="white">
                            <use xlink:href="#path-5"></use>
                        </mask>
                        <g id="Clip-26"></g>
                        <path d="M11.0644273,13.5993176 L0.695578537,13.5993176 L0.695578537,13.2311647 C2.1762322,13.1321294 2.37066146,12.8823882 2.37066146,11.3904 L2.37066146,2.93795294 C2.37066146,1.50409412 2.13777366,1.21344706 0.695578537,1.13594118 L0.695578537,0.767788235 L10.8913639,0.767788235 L10.9661444,3.53862353 L10.4854127,3.53862353 C10.1991102,1.79689412 9.75683707,1.50409412 7.52410537,1.50409412 L5.00507122,1.50409412 C4.46451512,1.50409412 4.33204683,1.5816 4.33204683,2.20164706 L4.33204683,6.46662353 L7.23566634,6.46662353 C8.88938341,6.46662353 9.17782244,6.13722353 9.41071024,4.60432941 L9.85298341,4.60432941 L9.85298341,9.14057647 L9.41071024,9.14057647 C9.17782244,7.51295294 8.88938341,7.26105882 7.23566634,7.26105882 L4.33204683,7.26105882 L4.33204683,11.9695412 C4.33204683,12.7855059 4.85123707,12.8823882 6.27420293,12.8823882 L6.96645659,12.8823882 C9.71624195,12.8823882 10.5452371,12.3786 11.4084176,10.3246941 L11.9489737,10.3246941 L11.0644273,13.5993176 Z" id="Fill-25" fill="#221F20" mask="url(#mask-6)"></path>
                    </g>
                </g>
            </g>
        </g>
    </g>
</svg>