<?xml version="1.0" encoding="UTF-8" standalone="no"?>
<svg width="216px" height="87px" viewBox="0 0 216 87" version="1.1" xmlns="http://www.w3.org/2000/svg" xmlns:xlink="http://www.w3.org/1999/xlink">
    <!-- Generator: Sketch 41.1 (35376) - http://www.bohemiancoding.com/sketch -->
    <title>Page 1</title>
    <desc>Created with Sketch.</desc>
    <defs>
        <polygon id="path-1" points="61.706933 0.329879702 0.480015969 0.329879702 0.480015969 54.6028947 61.706933 54.6028947"></polygon>
        <polygon id="path-3" points="0.451042153 17.191715 14.895538 17.191715 14.895538 0.616469528 0.451042153 0.616469528"></polygon>
        <polygon id="path-5" points="14.8326782 16.8554923 14.8326782 0.951624855 0.863476804 0.951624855 0.863476804 16.8554923 14.8326782 16.8554923"></polygon>
    </defs>
    <g id="Page-1" stroke="none" stroke-width="1" fill="none" fill-rule="evenodd">
        <g id="TAKLA-HOME" transform="translate(-143.000000, -9316.000000)">
            <g id="BOTTOM-BLOCK" transform="translate(0.000000, 9265.000000)">
                <g id="Page-1" transform="translate(143.000000, 50.000000)">
                    <g id="Group-3" transform="translate(17.403532, 0.852031)">
                        <mask id="mask-2" fill="white">
                            <use xlink:href="#path-1"></use>
                        </mask>
                        <g id="Clip-2"></g>
                        <path d="M29.2490596,4.52972819 C30.2914185,5.83459248 31.7475383,6.87795022 32.007465,8.16413548 C32.4159211,10.2108245 30.0924951,9.89861766 28.9573052,10.4376414 C19.8068258,14.7631731 12.8551137,21.5836907 7.54253107,30.0239479 C5.65673662,33.0205994 4.44728195,36.6736858 3.81072686,40.190682 C2.72062627,46.1973272 5.46577009,50.215989 11.4069509,51.2753573 C14.3881506,51.8063757 17.740674,51.5288586 20.6847413,50.7283284 C32.2063884,47.5902498 41.9483336,41.3808036 49.8601829,32.3695015 C53.3665405,28.377524 56.0825089,23.9052284 57.0956924,18.5710286 C58.3369748,12.0360334 55.9339793,7.01404036 49.8522259,4.78589786 C42.9535602,2.25889074 35.8745371,2.74187732 29.2490596,4.52972819 L29.2490596,4.52972819 Z M12.043506,54.6028947 C10.6112571,54.1545978 9.14718035,53.7916907 7.7547161,53.2419933 C3.07338389,51.3981053 0.61734217,46.9178044 0.490031152,41.9438432 C0.195624424,30.4348868 6.43386429,22.2694783 13.6773307,14.5390246 C15.6241284,12.4629829 17.7512833,10.5577209 19.7033856,8.42030515 C13.9133866,10.2561878 9.3010145,14.056038 4.73107943,17.9252675 C4.49502358,17.8185302 4.25896774,17.7117928 4.02291189,17.6050554 C4.25631542,16.7831777 4.26692468,15.7798465 4.75760256,15.1634382 C8.53449608,10.410957 13.4067948,7.08608809 18.8493408,4.52972819 C26.522482,0.930010539 34.6624301,-0.284126993 42.9588648,0.612466877 C50.7964493,1.46102893 58.4934613,4.94066704 60.9733738,13.895932 C62.8299928,20.6097123 61.0237677,26.5709941 57.1169109,31.9879154 C51.4833984,39.7930853 43.7412971,44.9084735 35.2247205,49.0258674 C29.5779464,51.7583439 23.6367656,53.4474627 17.5152275,54.6028947 L12.043506,54.6028947 Z" id="Fill-1" fill="#FFFFFF" mask="url(#mask-2)"></path>
                    </g>
                    <path d="M133.628296,9.56292865 C133.347151,9.26139559 133.060701,8.96253097 132.776904,8.66099791 C124.724482,15.139956 117.316572,22.2593383 111.523921,30.99846 C119.165234,24.1272422 127.16461,17.6242682 133.628296,9.56292865 M176.31462,50.648809 C177.051963,50.0430745 177.693822,49.6321356 178.19511,49.087775 C182.757088,44.0978032 187.311109,39.1024945 191.820041,34.0644909 C192.265629,33.5654937 192.78283,32.3780405 192.586559,32.1832448 C191.952656,31.5348153 191.011085,30.838354 190.180911,30.8303487 C189.122639,30.8223434 187.891965,31.2359507 187.022007,31.8683696 C182.213364,35.3613499 178.216328,39.6228392 176.160786,45.3146092 C175.625018,46.8035954 174.463305,48.6901784 176.31462,50.648809 M171.596155,47.5027252 C170.132078,48.8743003 168.988932,50.0243954 167.758258,51.0704216 C166.540847,52.1031056 165.288955,53.1144422 163.960146,53.992357 C162.042524,55.2571948 159.785406,55.0383832 158.042836,53.5894234 C156.324138,52.1538059 156.721985,50.3686234 157.570725,48.8209316 C159.915369,44.5621108 162.443023,40.4073588 164.901717,36.2099119 C165.204081,35.6949041 165.522359,35.1905701 165.837984,34.6808992 C165.708021,34.5341353 165.58071,34.3873714 165.453399,34.2406075 C163.535776,35.8283258 161.36088,37.1918957 159.761535,39.0544627 C155.849374,43.6068113 152.165311,48.3646294 148.473292,53.1011 C147.494588,54.355264 146.558322,55.3399162 144.879408,54.6167706 C143.349023,53.9603358 142.521501,52.9409939 143.457768,51.2011749 C144.322422,49.5921091 145.173814,47.9777064 145.741409,46.0777813 C145.078331,46.8863169 144.431167,47.7135315 143.74687,48.5060564 C142.304012,50.1791646 140.831978,51.8255885 139.391772,53.4986967 C138.394503,54.662134 137.288488,55.3292425 135.853587,54.2778794 C134.225067,53.0877578 132.026299,52.0630791 132.750381,49.5200614 C133.405502,47.206529 134.535387,45.0290867 135.585703,42.46739 C135.060545,42.8836657 134.628218,43.1318301 134.317898,43.4894002 C131.973253,46.1818503 129.732049,48.9676955 127.299878,51.5774241 C125.002975,54.0430572 123.133094,54.5607335 121.324217,53.6081025 C119.305807,52.5433972 118.597639,50.3792972 119.22889,47.1771762 C119.324373,46.6861843 119.427813,46.1978609 119.531254,45.6828531 C116.35113,48.3059238 113.274448,50.8729575 110.168589,53.4053015 C107.770898,55.3585953 105.314857,55.147789 102.768636,53.6267815 C100.012883,51.9803576 99.2118847,50.3979762 99.7343903,47.163834 C99.867006,46.3472932 100.050016,45.5360892 100.328508,44.1298244 C97.5462322,46.8356166 95.1511937,49.1544859 92.7641121,51.478692 C92.1673417,52.0604107 91.5864852,52.6581399 90.9976717,53.2505323 C89.5919459,54.6648024 88.1119553,55.4760064 86.16781,54.1417893 C84.0406551,52.676819 83.099084,50.6861671 84.260797,48.4927142 C85.9264495,45.3519673 88.0085151,42.4300319 89.9420512,39.4360488 C90.5202554,38.5421233 91.1939429,37.7175772 91.8092795,36.8796889 C89.8704388,34.0324697 88.719335,33.8083212 86.2155516,35.8283258 C85.2686759,36.591498 84.4172835,37.4720813 83.5075402,38.2832852 C82.6137107,39.081147 81.6986628,39.8549929 80.2876324,40.43938 C80.3751587,39.9670672 80.3141555,39.3800117 80.5740822,39.0384521 C81.5421763,37.7682774 82.6985848,36.6421982 83.6268943,35.3453393 C84.9769215,33.4560879 86.3269488,31.5428206 87.4303109,29.5041369 C88.8333844,26.9130874 90.1648455,24.2820113 93.4404519,23.8790778 C95.9071028,23.5748763 96.8009323,24.943783 95.7081794,27.2332995 C95.1564983,28.3887315 94.3236721,29.4134102 93.5836768,30.475447 C93.0213864,31.2786456 92.4060499,32.0418178 91.3079923,33.4854407 C93.0319957,33.592178 94.2096226,33.5815043 95.3580741,33.7576209 C96.6073134,33.9470798 98.3790584,33.9070533 98.9360441,34.6835676 C99.8245689,35.9190526 98.9174779,37.3119752 97.7425033,38.4247122 C94.6552112,41.3519845 91.5785282,44.3032726 88.7272919,47.4573618 C87.6796283,48.6154622 87.2791291,50.365955 86.5842231,51.8442675 C86.8574113,52.0577422 87.1305996,52.2738854 87.4064401,52.4873601 C88.753815,51.724188 90.2311533,51.1237903 91.4246941,50.1684909 C96.7929753,45.8723119 101.588357,41.1651941 104.893139,34.8863686 C110.030669,25.1252365 116.49966,16.2420193 124.541473,8.65032418 C126.445833,6.85179957 128.710908,5.33879742 131.023725,4.10598085 C133.72378,2.66769485 137.383971,4.24473942 138.248625,7.12397985 C138.487334,7.91650479 137.938305,9.28807993 137.296445,9.9498516 C133.320628,14.0405611 129.352768,18.1606234 125.117024,21.9711474 C119.740786,26.80635 113.836738,31.0758446 108.675337,36.1218536 C104.911705,39.7989558 103.731426,44.9223494 104.30963,50.2085174 C104.503249,51.9696839 106.102594,52.332591 107.468535,51.5133817 C110.179198,49.8883053 112.987998,48.300587 115.332642,46.2138715 C120.090892,41.9763981 124.411509,37.2425959 129.2175,33.0664965 C131.909598,30.7289482 134.978324,28.4367633 138.275149,27.2946735 C143.855615,25.3627272 146.412444,29.7469644 145.030589,33.9684272 C144.287942,33.6268677 143.50551,33.3947139 142.868954,32.9517538 C140.399651,31.2279454 137.97809,31.1398871 135.437174,32.823669 C129.421728,36.8076412 125.071935,42.1551832 122.366576,48.8502844 C122.098692,49.5120561 122.122563,50.2912388 122.011166,51.0143845 L122.546933,51.5080448 C124.822618,49.8456103 127.374143,48.4553562 129.310331,46.4620359 C132.636331,43.0357664 135.588356,39.2439215 138.670343,35.5801615 C139.476646,34.624862 139.98589,33.087844 141.646238,34.4193926 C143.176623,35.6415354 143.50551,37.4480654 142.415409,38.7449243 C139.18224,42.6061485 137.373362,47.10246 136.315089,51.9323258 L136.8429,52.3779543 C137.871997,51.4626814 138.99923,50.6408037 139.903669,49.6134566 C142.876911,46.2405558 145.539834,42.5581167 148.759741,39.449391 C151.316571,36.9784209 153.191756,34.1258649 155.035114,31.1932557 C155.496616,30.4621048 156.07482,29.3653784 155.841417,28.7089436 C155.093464,26.5982122 156.440839,25.7496501 157.761691,24.8877459 C158.830573,24.1886161 159.986982,23.5695394 161.183175,23.1319162 C162.95492,22.4861552 163.9071,22.8757465 165.418918,24.6395815 C160.281388,29.8590387 155.873244,35.657546 152.7833,42.3873369 C157.968572,37.9390572 163.188323,33.5281356 168.323201,29.0211504 C169.96233,27.5801959 171.723466,26.8170238 173.887753,26.9344349 C175.911468,27.0438407 176.805298,28.3006731 175.935339,30.1659086 C175.436704,31.2386191 174.569398,32.153892 173.805532,33.087844 C170.254085,37.4480654 166.543499,41.6855388 163.190976,46.192524 C162.063743,47.7055262 161.825035,49.8883053 161.546542,51.9670155 C166.524933,49.394645 171.036517,46.4807149 173.943452,41.7495812 C176.921999,36.9063732 180.17904,32.3086612 184.703885,28.8236862 C186.027389,27.801676 187.698347,27.0491775 189.324214,26.6595861 C191.716601,26.0885412 193.827842,26.886403 195.30518,29.5308213 C197.750612,25.9257668 199.986512,22.5822188 202.275458,19.2760289 C203.880107,16.9571596 205.503323,14.6462957 207.224674,12.4181532 C208.542873,10.7130238 212.086363,10.6970132 213.242772,12.4768587 C213.598182,13.0238877 213.306427,14.4328209 212.813097,15.0278818 C211.224362,16.9438175 209.468531,18.7343368 207.657001,20.444803 C201.089874,26.664923 196.504025,34.3019815 192.302762,42.1952097 C190.682199,45.2478983 189.401131,48.4820405 187.963578,51.6361296 C188.231461,51.8415991 188.496693,52.0470685 188.764576,52.2578748 C193.53874,47.7562264 198.312903,43.2599149 203.084414,38.7609349 L203.683836,39.2385847 C203.402691,39.8496561 203.254162,40.5861439 202.81653,41.047783 C198.840713,45.2532352 194.841025,49.4400084 190.780334,53.5654075 C189.913028,54.4486592 188.897192,55.4733379 187.406592,54.4406539 C185.709112,53.2638745 183.730487,52.1404637 184.584531,49.634804 C185.433271,47.1371497 186.650683,44.7622433 187.902575,41.8910082 C186.117568,43.8736547 184.634925,45.6054685 183.064756,47.2465555 C181.48663,48.8956478 179.863414,50.5100504 178.179196,52.0497369 C174.908894,55.0383832 172.561597,52.5940975 171.940956,49.8215944 C171.810992,49.2345389 171.760599,48.6261359 171.596155,47.5027252" id="Fill-4" fill="#FFFFFF"></path>
                    <path d="M4.53651593,85.0673399 C4.53651593,85.9078966 4.75135327,86.1987559 5.68231509,86.1987559 C8.14100912,86.1987559 9.45390399,85.9078966 10.8888052,84.9472603 C12.5597624,83.8185127 13.3713701,81.921256 13.3713701,79.2074585 C13.3713701,76.7071357 12.607504,75.0500381 11.1036426,73.7291632 C9.69526446,72.480336 8.18875075,72.0720656 5.80166917,72.0720656 C4.89457817,72.0720656 4.53651593,72.2882088 4.53651593,73.0807337 L4.53651593,85.0673399 Z M6.44618119,71.1834771 C9.52816875,71.1834771 11.9868628,71.9519861 13.6100783,73.3689246 C15.1616813,74.7138154 15.973289,76.5870562 15.973289,79.063363 C15.973289,81.921256 14.8513607,84.1787513 12.7268581,85.5503264 C11.2468675,86.5082943 9.12236488,87.0873445 6.70876017,87.0873445 L0.00106092515,87.0873445 L0.00106092515,86.6310423 C1.86298456,86.5082943 2.10169272,86.1987559 2.10169272,84.3255152 L2.10169272,73.8732587 C2.10169272,71.976002 1.81524293,71.7598588 0.00106092515,71.6397793 L0.00106092515,71.1834771 L6.44618119,71.1834771 Z" id="Fill-6" fill="#FFFFFF"></path>
                    <path d="M35.2609082,87.0868108 L22.3892338,87.0868108 L22.3892338,86.6305086 C24.229939,86.5077606 24.4686471,86.1982222 24.4686471,84.3489974 L24.4686471,73.872725 C24.4686471,72.0955478 24.1821973,71.7353092 22.3892338,71.6392456 L22.3892338,71.1829434 L35.0460708,71.1829434 L35.1415541,74.6172181 L34.5447837,74.6172181 C34.1867215,72.4584549 33.6376927,72.0955478 30.8686781,72.0955478 L27.7389489,72.0955478 C27.0705661,72.0955478 26.9034703,72.1916115 26.9034703,72.9601205 L26.9034703,78.2462885 L30.5079635,78.2462885 C32.563506,78.2462885 32.9215682,77.8380181 33.208018,75.938093 L33.7570468,75.938093 L33.7570468,81.5604837 L33.208018,81.5604837 C32.9215682,79.5431475 32.563506,79.2309407 30.5079635,79.2309407 L26.9034703,79.2309407 L26.9034703,85.0668062 C26.9034703,86.0781427 27.5479824,86.1982222 29.3144227,86.1982222 L30.1764244,86.1982222 C33.5899511,86.1982222 34.6163962,85.5738086 35.6905829,83.0281225 L36.3589657,83.0281225 L35.2609082,87.0868108 Z" id="Fill-8" fill="#FFFFFF"></path>
                    <path d="M58.8221991,71.6392456 C57.9151081,71.7353092 57.5570459,71.807357 57.2467252,72.0715319 C56.7931797,72.4798024 56.5544716,73.0108207 56.5544716,74.9080774 L56.5544716,87.3509858 L56.1247969,87.3509858 L45.5951148,74.1609159 L45.5951148,83.4817563 C45.5951148,85.9553947 45.9770479,86.3663336 47.8151007,86.6305086 L47.8151007,87.0868108 L42.2266775,87.0868108 L42.2266775,86.6305086 C44.1840844,86.4143654 44.5447989,86.0514584 44.5447989,83.4817563 L44.5447989,72.9147571 C43.7544097,71.9274365 43.3989998,71.6392456 42.2266775,71.6392456 L42.2266775,71.1829434 L46.2873685,71.1829434 L55.5041557,82.7879634 L55.5041557,74.6172181 C55.5041557,73.3924068 55.4086724,72.6719296 55.0506102,72.2636592 C54.6448063,71.807357 54.2151316,71.7593251 53.1648157,71.6392456 L53.1648157,71.1829434 L58.8221991,71.1829434 L58.8221991,71.6392456 Z" id="Fill-10" fill="#FFFFFF"></path>
                    <path d="M78.0127436,75.2664481 C77.4875857,72.6246983 76.8669445,72.192412 74.336638,72.192412 L72.9282598,72.192412 L72.9282598,84.4191772 C72.9282598,86.2443861 73.259799,86.5352455 75.2198582,86.6313091 L75.2198582,87.0876113 L68.2469276,87.0876113 L68.2469276,86.6313091 C70.2282053,86.5085611 70.4907843,86.2443861 70.4907843,84.1309863 L70.4907843,72.192412 L69.0585354,72.192412 C66.5282289,72.192412 65.8837169,72.6246983 65.4063006,75.2664481 L64.8307487,75.2664481 L65.0004967,71.1837439 L78.4185475,71.1837439 L78.5856432,75.2664481 L78.0127436,75.2664481 Z" id="Fill-12" fill="#FFFFFF"></path>
                    <path d="M90.9013928,74.3050113 L88.1562489,80.9147227 L93.6704074,80.9147227 L90.9013928,74.3050113 Z M93.7897615,87.0868108 L93.7897615,86.6305086 C94.6491108,86.6305086 94.8188589,86.5824768 95.1026563,86.4143654 C95.2936229,86.3183018 95.4368478,86.0514584 95.4368478,85.8353152 C95.4368478,85.477745 95.2697521,84.8266471 94.9859546,84.1542017 L94.0045988,81.8967064 L87.7504451,81.8967064 L86.6497352,84.6345198 C86.5330335,84.9467266 86.4348979,85.3576655 86.4348979,85.6458564 C86.4348979,86.3876811 86.9627082,86.6305086 88.1085073,86.6305086 L88.1085073,87.0868108 L83.3555627,87.0868108 L83.3555627,86.6305086 C84.74007,86.4837447 84.9549073,85.9820791 86.3659378,82.6171836 L91.2833258,70.8947525 L91.7607421,70.8947525 L97.6356151,84.4183767 C98.303998,85.9820791 98.6381894,86.4837447 99.8794718,86.6305086 L99.8794718,87.0868108 L93.7897615,87.0868108 Z" id="Fill-14" fill="#FFFFFF"></path>
                    <path d="M118.61594,87.0868108 L105.770789,87.0868108 L105.770789,86.6305086 C107.53723,86.5344449 107.84755,86.147522 107.84755,84.3249815 L107.84755,73.9687886 C107.84755,72.1195637 107.632713,71.783341 105.770789,71.6392456 L105.770789,71.1829434 L112.528882,71.1829434 L112.528882,71.6392456 C110.571475,71.7593251 110.282373,72.0715319 110.282373,73.9207568 L110.282373,85.0668062 C110.282373,85.9820791 110.69083,86.147522 112.433399,86.147522 L114.104356,86.147522 C116.037892,86.147522 117.326916,85.7152357 118.138524,84.6852201 C118.451497,84.2742812 118.761818,83.7459313 119.141098,82.9080429 L119.764392,82.9080429 L118.61594,87.0868108 Z" id="Fill-16" fill="#FFFFFF"></path>
                    <g id="Group-20" transform="translate(136.757611, 70.231319)">
                        <mask id="mask-4" fill="white">
                            <use xlink:href="#path-3"></use>
                        </mask>
                        <g id="Clip-19"></g>
                        <path d="M14.895538,14.1400937 C13.513683,16.133414 11.1955616,17.1927824 8.37880532,17.1927824 C6.20656108,17.1927824 4.12714779,16.4216049 2.74264047,15.0526982 C1.28652071,13.6117438 0.451042153,11.4236278 0.451042153,9.04872139 C0.451042153,6.64446224 1.23877907,4.65114194 2.59941558,3.11412388 C4.12714779,1.40899447 6.18269026,0.616469528 8.40267613,0.616469528 C9.33363795,0.616469528 10.2884706,0.712533157 11.2433032,0.974039702 C11.7472427,1.11813514 12.4845856,1.40899447 12.8903895,1.40899447 C13.343935,1.40899447 13.7497389,1.11813514 13.8929638,0.616469528 L14.3730324,0.616469528 L14.5878697,6.0707489 L14.038841,6.0707489 C13.7497389,4.74453713 13.3943289,4.05074426 12.7949062,3.40231476 C11.7472427,2.27356713 10.5033079,1.57710582 8.95170489,1.57710582 C5.34455939,1.57710582 3.2227091,4.5070465 3.2227091,8.66179844 C3.2227091,11.3062167 3.81682718,13.1794574 4.93875553,14.4042687 C5.99172373,15.5330163 7.54332676,16.133414 9.19041305,16.133414 C11.3387865,16.133414 12.6516813,15.4156052 14.4419925,13.7078074 L14.895538,14.1400937 Z" id="Fill-18" fill="#FFFFFF" mask="url(#mask-4)"></path>
                    </g>
                    <path d="M165.233522,74.3050113 L162.488378,80.9147227 L168.005189,80.9147227 L165.233522,74.3050113 Z M168.124543,87.0868108 L168.124543,86.6305086 C168.983892,86.6305086 169.150988,86.5824768 169.437438,86.4143654 C169.628404,86.3183018 169.771629,86.0514584 169.771629,85.8353152 C169.771629,85.477745 169.601881,84.8266471 169.318084,84.1542017 L168.33938,81.8967064 L162.085226,81.8967064 L160.981864,84.6345198 C160.865163,84.9467266 160.767027,85.3576655 160.767027,85.6458564 C160.767027,86.3876811 161.294837,86.6305086 162.440636,86.6305086 L162.440636,87.0868108 L157.687692,87.0868108 L157.687692,86.6305086 C159.074851,86.4837447 159.289689,85.9820791 160.698067,82.6171836 L165.618107,70.8947525 L166.092871,70.8947525 L171.967744,84.4183767 C172.636127,85.9820791 172.970318,86.4837447 174.214253,86.6305086 L174.214253,87.0868108 L168.124543,87.0868108 Z" id="Fill-21" fill="#FFFFFF"></path>
                    <path d="M184.687971,78.846953 C186.97957,78.7962528 187.815048,78.6308099 188.913106,78.0277438 C189.772455,77.5500941 190.273742,76.4907257 190.273742,75.2899303 C190.273742,73.1284987 188.865364,72.0717988 185.905383,72.0717988 C185.091123,72.0717988 184.687971,72.2399101 184.687971,73.0804669 L184.687971,78.846953 Z M191.705991,87.0870776 L186.024737,79.6848414 L184.687971,79.7355416 L184.687971,84.3946276 C184.687971,86.222505 184.971769,86.5080274 186.812474,86.6307754 L186.812474,87.0870776 L180.221477,87.0870776 L180.221477,86.6307754 C182.011788,86.4840115 182.250496,86.222505 182.250496,84.1091052 L182.250496,73.8489759 C182.250496,72.0717988 182.062182,71.7836079 180.221477,71.6395124 L180.221477,71.1832102 L186.716991,71.1832102 C188.984718,71.1832102 190.682199,71.759592 191.705991,72.6001487 C192.493728,73.2485782 192.878314,74.4253577 192.878314,75.4820576 C192.878314,77.5714415 191.538896,78.9670326 188.555044,79.4233348 L193.331859,85.4993593 C194.024113,86.3879479 194.5254,86.5347118 195.573063,86.6307754 L195.573063,87.0870776 L191.705991,87.0870776 Z" id="Fill-23" fill="#FFFFFF"></path>
                    <g id="Group-27" transform="translate(200.413120, 70.231319)">
                        <mask id="mask-6" fill="white">
                            <use xlink:href="#path-5"></use>
                        </mask>
                        <g id="Clip-26"></g>
                        <path d="M13.7351512,16.8554923 L0.863476804,16.8554923 L0.863476804,16.3991901 C2.70152962,16.2764421 2.94289009,15.9669037 2.94289009,14.1176789 L2.94289009,3.64140646 C2.94289009,1.86422933 2.65378799,1.50399072 0.863476804,1.40792709 L0.863476804,0.951624855 L13.5203138,0.951624855 L13.6131448,4.38589959 L13.0163744,4.38589959 C12.6609644,2.22713637 12.1119357,1.86422933 9.34026873,1.86422933 L6.21319186,1.86422933 C5.5421567,1.86422933 5.37771331,1.96029296 5.37771331,2.72880199 L5.37771331,8.01497001 L8.98220649,8.01497001 C11.0350967,8.01497001 11.3931589,7.60669959 11.682261,5.70677448 L12.2312898,5.70677448 L12.2312898,11.3291652 L11.682261,11.3291652 C11.3931589,9.311829 11.0350967,8.9996222 8.98220649,8.9996222 L5.37771331,8.9996222 L5.37771331,14.8354877 C5.37771331,15.8468242 6.02222533,15.9669037 7.7886657,15.9669037 L8.64801507,15.9669037 C12.0615417,15.9669037 13.0906391,15.3424901 14.1621735,12.796804 L14.8332087,12.796804 L13.7351512,16.8554923 Z" id="Fill-25" fill="#FFFFFF" mask="url(#mask-6)"></path>
                    </g>
                </g>
            </g>
        </g>
    </g>
</svg>