<?xml version="1.0" encoding="UTF-8" standalone="no"?>
<svg width="68px" height="69px" viewBox="0 0 68 69" version="1.1" xmlns="http://www.w3.org/2000/svg" xmlns:xlink="http://www.w3.org/1999/xlink">
    <!-- Generator: Sketch 41.1 (35376) - http://www.bohemiancoding.com/sketch -->
    <title>Page 1</title>
    <desc>Created with Sketch.</desc>
    <defs>
        <polygon id="path-1" points="0.00010625 68.0003312 68 68.0003312 68 0.000584377846 0.00010625 0.000584377846"></polygon>
        <polygon id="path-3" points="0 68.2654262 68 68.2654262 68 0.265626294 0 0.265626294"></polygon>
    </defs>
    <g id="Page-1" stroke="none" stroke-width="1" fill="none" fill-rule="evenodd">
        <g id="TAKLA-HOME" transform="translate(-1084.000000, -879.000000)">
            <g id="CALL-TO-ACTION-(BELOW-SLIDER)" transform="translate(-156.000000, 819.000000)">
                <g id="Group-4">
                    <g id="Page-1" transform="translate(1240.000000, 60.000000)">
                        <g id="Group-3" transform="translate(0.000000, 0.265095)">
                            <mask id="mask-2" fill="white">
                                <use xlink:href="#path-1"></use>
                            </mask>
                            <g id="Clip-2"></g>
                            <path d="M53.655825,10.3605411 L53.655825,9.5636622 C53.655825,8.39596901 52.6985125,7.4381206 51.530825,7.4381206 L34.9183719,7.4381206 C32.9418563,7.4381206 31.2171531,6.41599062 30.2646219,4.68437281 L29.7652469,3.77593089 C29.1845906,2.71953512 28.1754813,2.12559473 26.9708719,2.12559473 L16.4688563,2.12559473 C15.3019656,2.12559473 14.3438563,3.08370877 14.3438563,4.25060507 L14.3438563,5.04748396 C13.6117938,5.04748396 12.8943406,5.17365645 12.2188563,5.41325136 L12.2188563,4.25060507 C12.2188563,1.91070305 14.1289656,0.000584377846 16.4688563,0.000584377846 L26.9708719,0.000584377846 C28.9473875,0.000584377846 30.6726219,1.02324561 31.6246219,2.75486342 L32.1239969,3.66330534 C32.7051844,4.71970111 33.7137625,5.3136415 34.9183719,5.3136415 L51.530825,5.3136415 C53.8715125,5.3136415 55.780825,7.22269767 55.780825,9.5636622 L55.780825,10.7263085 C55.1058719,10.4867136 54.3884188,10.3605411 53.6563563,10.3605411 L53.655825,10.3605411 Z M60.0313563,49.9383276 L60.0313563,51.0008327 L57.9063563,51.0008327 L57.9063563,49.9383276 L57.9063563,23.9080133 C57.9063563,22.7397889 56.949575,21.7824717 55.7813563,21.7824717 L34.9183719,21.7824717 C32.9418563,21.7824717 31.2171531,20.7603417 30.2646219,19.0287239 L29.7652469,18.120282 C29.1845906,17.063355 28.1760125,16.4699458 26.9708719,16.4699458 L12.2188563,16.4699458 C11.0509031,16.4699458 10.0938563,17.427263 10.0938563,18.5944249 L10.0938563,49.9383276 L10.0938563,51.0008327 L7.96885625,51.0008327 L7.96885625,49.9383276 L7.96885625,18.5944249 C7.96885625,16.253726 9.87790313,14.3449355 12.2188563,14.3449355 L26.9708719,14.3449355 C28.9479188,14.3449355 30.6720906,15.3675967 31.6246219,17.0992145 L32.1239969,18.0076564 C32.7051844,19.0640522 33.7132313,19.6579926 34.9183719,19.6579926 L55.7813563,19.6579926 C58.122575,19.6579926 60.0313563,21.5662519 60.0313563,23.9080133 L60.0313563,49.9383276 Z M55.7813563,17.5329823 L55.7813563,16.7355721 C55.7813563,15.5678789 54.8240438,14.6105618 53.6563563,14.6105618 L34.9183719,14.6105618 C32.9418563,14.6105618 31.2171531,13.5879005 30.2646219,11.8562827 L29.7652469,10.9483721 C29.1845906,9.89144505 28.1754813,9.29803591 26.9708719,9.29803591 L14.3438563,9.29803591 C13.1769656,9.29803591 12.2188563,10.2561499 12.2188563,11.422515 L12.2188563,12.2199251 C11.4867938,12.2199251 10.7693406,12.3460976 10.0938563,12.5851613 L10.0938563,11.422515 C10.0938563,9.08261298 12.0039656,7.17302556 14.3438563,7.17302556 L26.9708719,7.17302556 C28.9473875,7.17302556 30.6726219,8.19568679 31.6246219,9.92677334 L32.1239969,10.8352153 C32.7051844,11.891611 33.7137625,12.4855514 34.9183719,12.4855514 L53.6563563,12.4855514 C55.9970438,12.4855514 57.9063563,14.3948732 57.9063563,16.7355721 L57.9063563,17.8982184 C57.2237,17.6559672 56.5051844,17.5329823 55.7813563,17.5329823 L55.7813563,17.5329823 Z M5.31260625,38.7820232 L5.84385625,38.7820232 L5.84385625,41.9695388 L5.3131375,41.9695388 C4.14385625,41.9695388 3.1881375,42.9252622 3.1881375,44.0940179 L3.1881375,51.0008327 C3.1881375,52.1690572 4.14385625,53.1258431 5.3131375,53.1258431 L62.687075,53.1258431 C63.855825,53.1258431 64.812075,52.1690572 64.812075,51.0008327 L64.812075,44.0940179 C64.812075,42.9252622 63.8563563,41.9695388 62.687075,41.9695388 L62.1563563,41.9695388 L62.1563563,38.7820232 L62.6876063,38.7820232 C65.6121375,38.7820232 68.0001063,41.1689411 68.0001063,44.0940179 L68.0001063,62.6883897 C68.0001063,65.6134664 65.6121375,68.0003843 62.6876063,68.0003843 L5.31260625,68.0003843 C2.38754375,68.0003843 0.00010625,65.6134664 0.00010625,62.6883897 L0.00010625,44.0940179 C0.00010625,41.1689411 2.38754375,38.7820232 5.31260625,38.7820232 L5.31260625,38.7820232 Z" id="Fill-1" fill="#424242" mask="url(#mask-2)"></path>
                        </g>
                        <mask id="mask-4" fill="white">
                            <use xlink:href="#path-3"></use>
                        </mask>
                        <g id="Clip-5"></g>
                        <path d="M36.6567812,44.6252173 L52.5942812,44.6252173 L52.5942812,42.500207 L36.6567812,42.500207 L36.6567812,44.6252173 Z M36.65625,38.7809076 L52.59375,38.7809076 L52.59375,36.6564285 L36.65625,36.6564285 L36.65625,38.7809076 Z M31.8755312,44.6246861 L14.8755312,44.6246861 L15.8360312,37.0378679 C15.9738906,35.9482688 16.7224219,35.1301398 17.7357812,34.7067315 L20.0645156,33.734008 L23.3755312,37.4968701 L26.6865469,33.734008 L29.0155469,34.7067315 C30.0286406,35.1301398 30.7774375,35.9488001 30.9152969,37.0378679 L31.8755312,44.6246861 Z M23.3755312,23.3745826 C20.8818437,23.3745826 18.8599062,25.3959987 18.8599062,27.8902296 C18.8599062,30.3836636 20.8818437,32.4058766 23.3755312,32.4058766 C25.8694844,32.4058766 27.8911562,30.3836636 27.8911562,27.8902296 C27.8911562,25.3959987 25.8694844,23.3745826 23.3755312,23.3745826 L23.3755312,23.3745826 Z M36.65625,32.9376604 L52.59375,32.9376604 L52.59375,30.8121188 L36.65625,30.8121188 L36.65625,32.9376604 Z" id="Fill-4" fill="#424242" mask="url(#mask-4)"></path>
                    </g>
                </g>
            </g>
        </g>
    </g>
</svg>