<?xml version="1.0" encoding="UTF-8"?>
<svg width="50px" height="50px" viewBox="0 0 50 50" version="1.1" xmlns="http://www.w3.org/2000/svg" xmlns:xlink="http://www.w3.org/1999/xlink">
    <!-- Generator: Sketch 40.3 (33839) - http://www.bohemiancoding.com/sketch -->
    <title>Page 1</title>
    <desc>Created with Sketch.</desc>
    <defs></defs>
    <g id="Page-1" stroke="none" stroke-width="1" fill="none" fill-rule="evenodd">
        <g id="TAKLA-HOME" transform="translate(-248.000000, -889.000000)" fill="#4D4D4D">
            <g id="CALL-TO-ACTION-(BELOW-SLIDER)" transform="translate(-156.000000, 819.000000)">
                <g id="Group-4">
                    <g id="Page-1" transform="translate(404.000000, 70.000000)">
                        <path d="M38.7793,50 C43.3903,50 49.9803,44.058 50.0003,42.542 L50.0003,39.53 C50.0023,38.818 49.5423,38.187 48.8623,37.971 L37.0083,34.214 C36.4283,34.03 35.7943,34.185 35.3633,34.615 L30.9613,39.018 C30.4433,39.536 29.6493,39.65 29.0123,39.288 C27.2043,38.261 23.3383,35.788 18.7753,31.225 C14.2123,26.662 11.7393,22.796 10.7123,20.987 C10.3493,20.351 10.4643,19.557 10.9823,19.039 L15.3843,14.636 C15.8153,14.206 15.9693,13.571 15.7863,12.991 L12.0293,1.138 C11.8133,0.458 11.1823,-0.002 10.4693,-1.31006317e-14 L7.4583,-1.31006317e-14 C5.9423,0.02 0.0003,6.609 0.0003,11.221 C0.0003,14.035 1.0493,24.256 13.3903,36.599 C25.7333,48.941 35.9653,50 38.7793,50" id="Fill-1"></path>
                    </g>
                </g>
            </g>
        </g>
    </g>
</svg>