<?xml version="1.0" encoding="UTF-8" standalone="no"?>
<svg width="50px" height="50px" viewBox="0 0 50 50" version="1.1" xmlns="http://www.w3.org/2000/svg" xmlns:xlink="http://www.w3.org/1999/xlink">
    <!-- Generator: Sketch 41.1 (35376) - http://www.bohemiancoding.com/sketch -->
    <title>Page 1</title>
    <desc>Created with Sketch.</desc>
    <defs></defs>
    <g id="Page-1" stroke="none" stroke-width="1" fill="none" fill-rule="evenodd">
        <g id="TAKLA-HOME" transform="translate(-635.000000, -9344.000000)" fill="#FFFFFF">
            <g id="BOTTOM-BLOCK" transform="translate(0.000000, 9265.000000)">
                <g id="Page-1" transform="translate(635.000000, 79.000000)">
                    <path d="M38.779,50.0000065 C43.39,50.0000065 49.98,44.0580065 50,42.5420065 L50,39.5300065 C50.002,38.8180065 49.542,38.1870065 48.862,37.9710065 L37.008,34.2140065 C36.428,34.0300065 35.794,34.1850065 35.363,34.6150065 L30.961,39.0180065 C30.443,39.5360065 29.649,39.6500065 29.012,39.2880065 C27.204,38.2610065 23.338,35.7880065 18.775,31.2250065 C14.212,26.6620065 11.739,22.7960065 10.712,20.9870065 C10.349,20.3510065 10.464,19.5570065 10.982,19.0390065 L15.384,14.6360065 C15.815,14.2060065 15.969,13.5710065 15.786,12.9910065 L12.029,1.1380065 C11.813,0.458006496 11.182,-0.00199350404 10.469,6.49596267e-06 L7.458,6.49596267e-06 C5.942,0.020006496 0,6.6090065 0,11.2210065 C0,14.0350065 1.049,24.2560065 13.39,36.5990065 C25.733,48.9410065 35.965,50.0000065 38.779,50.0000065" id="Fill-1"></path>
                </g>
            </g>
        </g>
    </g>
</svg>