<?xml version="1.0" encoding="utf-8"?>
<!-- Generator: Adobe Illustrator 21.0.0, SVG Export Plug-In . SVG Version: 6.00 Build 0)  -->
<svg version="1.1" id="Layer_1" xmlns="http://www.w3.org/2000/svg" xmlns:xlink="http://www.w3.org/1999/xlink" x="0px" y="0px"
	 viewBox="0 0 126 41.4" style="enable-background:new 0 0 126 41.4;" xml:space="preserve">
<g>
	<path d="M31.8,25.6c-0.5-0.2-1.1-0.3-1.6-0.5c-1.8-0.7-2.7-2.4-2.7-4.2c-0.1-4.3,2.2-7.4,5-10.3c0.7-0.8,1.5-1.5,2.3-2.3
		c-2.2,0.7-3.9,2.1-5.6,3.6c-0.1,0-0.2-0.1-0.3-0.1c0.1-0.3,0.1-0.7,0.3-0.9c1.4-1.8,3.3-3,5.3-4c2.9-1.3,6-1.8,9.1-1.5
		c3,0.3,5.9,1.6,6.8,5c0.7,2.5,0,4.7-1.5,6.8c-2.1,2.9-5,4.8-8.3,6.4c-2.1,1-4.4,1.7-6.7,2.1C33.2,25.6,32.5,25.6,31.8,25.6z
		 M38.3,6.8c0.4,0.5,0.9,0.9,1,1.4c0.2,0.8-0.7,0.6-1.1,0.9c-3.4,1.6-6.1,4.2-8.1,7.3c-0.7,1.1-1.2,2.5-1.4,3.8
		c-0.4,2.3,0.6,3.8,2.9,4.2c1.1,0.2,2.4,0.1,3.5-0.2c4.3-1.2,8-3.5,11-6.9c1.3-1.5,2.3-3.2,2.7-5.2c0.5-2.4-0.4-4.3-2.7-5.2
		C43.5,6,40.8,6.2,38.3,6.8z"/>
	<path d="M85.4,22.6c-0.6,0.5-1,0.9-1.4,1.3c-0.5,0.4-0.9,0.8-1.4,1.1c-0.7,0.5-1.6,0.4-2.2-0.2c-0.6-0.5-0.5-1.2-0.2-1.8
		c0.9-1.6,1.8-3.2,2.8-4.7c0.1-0.2,0.2-0.4,0.4-0.6c0-0.1-0.1-0.1-0.1-0.2c-0.7,0.6-1.5,1.1-2.1,1.8c-1.5,1.7-2.9,3.5-4.3,5.3
		c-0.4,0.5-0.7,0.8-1.4,0.6c-0.6-0.2-0.9-0.6-0.5-1.3c0.3-0.6,0.6-1.2,0.9-1.9c-0.3,0.3-0.5,0.6-0.8,0.9c-0.5,0.6-1.1,1.2-1.6,1.9
		c-0.4,0.4-0.8,0.7-1.3,0.3c-0.6-0.4-1.4-0.8-1.2-1.8c0.2-0.9,0.7-1.7,1.1-2.6c-0.2,0.2-0.4,0.2-0.5,0.4c-0.9,1-1.7,2.1-2.6,3
		c-0.9,0.9-1.6,1.1-2.3,0.8c-0.8-0.4-1-1.2-0.8-2.4c0-0.2,0.1-0.4,0.1-0.6c-1.2,1-2.4,1.9-3.5,2.9c-0.9,0.7-1.8,0.7-2.8,0.1
		c-1-0.6-1.3-1.2-1.1-2.4c0-0.3,0.1-0.6,0.2-1.1c-1.1,1-2,1.9-2.9,2.8c-0.2,0.2-0.4,0.4-0.7,0.7c-0.5,0.5-1.1,0.8-1.8,0.3
		c-0.8-0.5-1.2-1.3-0.7-2.1c0.6-1.2,1.4-2.3,2.1-3.4c0.2-0.3,0.5-0.6,0.7-1c-0.7-1.1-1.2-1.2-2.1-0.4c-0.4,0.3-0.7,0.6-1,0.9
		c-0.3,0.3-0.7,0.6-1.2,0.8c0-0.2,0-0.4,0.1-0.5c0.4-0.5,0.8-0.9,1.2-1.4c0.5-0.7,1-1.4,1.4-2.2c0.5-1,1-2,2.3-2.1
		c0.9-0.1,1.3,0.4,0.9,1.3c-0.2,0.4-0.5,0.8-0.8,1.2c-0.2,0.3-0.4,0.6-0.9,1.1c0.6,0,1.1,0,1.5,0.1c0.5,0.1,1.1,0.1,1.3,0.3
		c0.3,0.5,0,1-0.5,1.4c-1.2,1.1-2.3,2.2-3.4,3.4c-0.4,0.4-0.5,1.1-0.8,1.6c0.1,0.1,0.2,0.2,0.3,0.2c0.5-0.3,1.1-0.5,1.5-0.9
		c2-1.6,3.8-3.4,5.1-5.7c1.9-3.7,4.4-7,7.4-9.8c0.7-0.7,1.6-1.2,2.4-1.7c1-0.5,2.4,0.1,2.7,1.1c0.1,0.3-0.1,0.8-0.4,1.1
		c-1.5,1.5-3,3.1-4.6,4.5c-2,1.8-4.3,3.4-6.2,5.3c-1.4,1.4-1.9,3.3-1.6,5.3c0.1,0.7,0.7,0.8,1.2,0.5c1-0.6,2.1-1.2,3-2
		c1.8-1.6,3.4-3.4,5.2-4.9c1-0.9,2.2-1.7,3.4-2.2c2.1-0.7,3.1,0.9,2.5,2.5c-0.3-0.1-0.6-0.2-0.8-0.4c-0.9-0.6-1.8-0.7-2.8,0
		c-2.3,1.5-3.9,3.5-4.9,6c-0.1,0.2-0.1,0.5-0.1,0.8c0.1,0.1,0.1,0.1,0.2,0.2c0.9-0.6,1.8-1.1,2.5-1.9c1.3-1.3,2.4-2.7,3.5-4.1
		c0.3-0.4,0.5-0.9,1.1-0.4c0.6,0.5,0.7,1.1,0.3,1.6c-1.2,1.4-1.9,3.1-2.3,4.9c0.1,0.1,0.1,0.1,0.2,0.2c0.4-0.3,0.8-0.7,1.2-1
		c1.1-1.3,2.1-2.6,3.3-3.8c1-0.9,1.7-2,2.4-3.1c0.2-0.3,0.4-0.7,0.3-0.9c-0.3-0.8,0.2-1.1,0.7-1.4c0.4-0.3,0.8-0.5,1.3-0.7
		c0.7-0.2,1-0.1,1.6,0.6c-1.9,2-3.6,4.1-4.8,6.7c2-1.7,3.9-3.3,5.9-5c0.6-0.5,1.3-0.8,2.1-0.8c0.8,0,1.1,0.5,0.8,1.2
		c-0.2,0.4-0.5,0.7-0.8,1.1c-1.3,1.6-2.7,3.2-4,4.9c-0.4,0.6-0.5,1.4-0.6,2.2c1.9-1,3.6-2.1,4.7-3.8c1.1-1.8,2.4-3.5,4.1-4.8
		c0.5-0.4,1.1-0.7,1.7-0.8c0.9-0.2,1.7,0.1,2.3,1.1c0.9-1.4,1.8-2.6,2.6-3.8c0.6-0.9,1.2-1.7,1.9-2.6c0.5-0.6,1.8-0.6,2.3,0
		c0.1,0.2,0,0.7-0.2,1c-0.6,0.7-1.3,1.4-1.9,2c-2.5,2.3-4.2,5.2-5.8,8.2c-0.6,1.1-1.1,2.4-1.6,3.5c0.1,0.1,0.2,0.2,0.3,0.2
		c1.8-1.7,3.6-3.4,5.4-5.1c0.1,0.1,0.2,0.1,0.2,0.2c-0.1,0.2-0.2,0.5-0.3,0.7c-1.5,1.6-3,3.1-4.5,4.7c-0.3,0.3-0.7,0.7-1.3,0.3
		c-0.6-0.4-1.4-0.9-1.1-1.8c0.3-0.9,0.8-1.8,1.3-2.9c-0.7,0.7-1.2,1.4-1.8,2c-0.6,0.6-1.2,1.2-1.8,1.8c-1.2,1.1-2.1,0.2-2.4-0.8
		C85.5,23.3,85.5,23.1,85.4,22.6z M87.2,23.8c0.3-0.2,0.5-0.4,0.7-0.6c1.7-1.9,3.4-3.7,5.1-5.6c0.2-0.2,0.4-0.6,0.3-0.7
		c-0.2-0.2-0.6-0.5-0.9-0.5c-0.4,0-0.9,0.2-1.2,0.4c-1.8,1.3-3.3,2.9-4.1,5C86.9,22.4,86.5,23.1,87.2,23.8z M71.1,8.4
		c-0.1-0.1-0.2-0.2-0.3-0.3c-3,2.4-5.8,5.1-8,8.4C65.6,13.9,68.6,11.4,71.1,8.4z"/>
	<g>
		<path d="M23.1,31.5c1.2,0,2.1,0.3,2.7,0.8c0.6,0.5,0.9,1.2,0.9,2.1c0,1.1-0.4,1.9-1.2,2.4c-0.6,0.4-1.4,0.6-2.3,0.6h-2.5v-0.2
			c0.7,0,0.8-0.2,0.8-0.9v-3.9c0-0.7-0.1-0.8-0.8-0.8v-0.2H23.1z M22.4,36.7c0,0.3,0.1,0.4,0.4,0.4c0.9,0,1.4-0.1,2-0.5
			c0.6-0.4,0.9-1.1,0.9-2.2c0-0.9-0.3-1.6-0.9-2.1c-0.5-0.5-1.1-0.6-2-0.6c-0.3,0-0.5,0.1-0.5,0.4V36.7z"/>
		<path d="M34,37.5h-4.9v-0.2c0.7,0,0.8-0.2,0.8-0.9v-3.9c0-0.7-0.1-0.8-0.8-0.8v-0.2h4.8l0,1.3h-0.2c-0.1-0.8-0.3-0.9-1.4-0.9h-1.2
			c-0.3,0-0.3,0-0.3,0.3v2h1.4c0.8,0,0.9-0.2,1-0.9h0.2v2.1h-0.2c-0.1-0.8-0.2-0.9-1-0.9h-1.4v2.2c0,0.4,0.2,0.4,0.9,0.4h0.3
			c1.3,0,1.7-0.2,2.1-1.2h0.3L34,37.5z"/>
		<path d="M42.9,31.7c-0.3,0-0.5,0.1-0.6,0.2C42.1,32,42,32.2,42,32.9v4.7h-0.2l-4-4.9v3.5c0,0.9,0.1,1.1,0.8,1.2v0.2h-2.1v-0.2
			c0.7-0.1,0.9-0.2,0.9-1.2v-4c-0.3-0.4-0.4-0.5-0.9-0.5v-0.2h1.5l3.5,4.3v-3.1c0-0.5,0-0.7-0.2-0.9c-0.2-0.2-0.3-0.2-0.7-0.2v-0.2
			h2.1V31.7z"/>
		<path d="M50.1,33c-0.2-1-0.4-1.2-1.4-1.2h-0.5v4.6c0,0.7,0.1,0.8,0.9,0.8v0.2h-2.6v-0.2c0.7,0,0.8-0.1,0.8-0.9v-4.5h-0.5
			c-1,0-1.2,0.2-1.4,1.2h-0.2l0.1-1.5h5.1l0.1,1.5H50.1z"/>
		<path d="M56.1,37.5v-0.2c0.3,0,0.4,0,0.5-0.1c0.1,0,0.1-0.1,0.1-0.2c0-0.1-0.1-0.4-0.2-0.6l-0.4-0.8h-2.4l-0.4,1
			c0,0.1-0.1,0.3-0.1,0.4c0,0.3,0.2,0.4,0.6,0.4v0.2h-1.8v-0.2c0.5-0.1,0.6-0.2,1.1-1.5l1.9-4.4h0.2l2.2,5.1
			c0.3,0.6,0.4,0.8,0.8,0.8v0.2H56.1z M55,32.7l-1,2.5H56L55,32.7z"/>
		<path d="M65.4,37.5h-4.8v-0.2c0.7,0,0.8-0.2,0.8-0.9v-3.9c0-0.7-0.1-0.8-0.8-0.9v-0.2h2.5v0.2c-0.7,0-0.8,0.2-0.8,0.9v4.2
			c0,0.3,0.2,0.4,0.8,0.4h0.6c0.7,0,1.2-0.2,1.5-0.5c0.1-0.2,0.2-0.4,0.4-0.7h0.2L65.4,37.5z"/>
		<path d="M77.9,36.5c-0.5,0.7-1.4,1.1-2.5,1.1c-0.8,0-1.6-0.3-2.1-0.8c-0.5-0.5-0.9-1.4-0.9-2.2c0-0.9,0.3-1.6,0.8-2.2
			c0.6-0.6,1.4-0.9,2.2-0.9c0.4,0,0.7,0,1.1,0.1c0.2,0.1,0.5,0.2,0.6,0.2c0.2,0,0.3-0.1,0.4-0.3h0.2l0.1,2h-0.2
			c-0.1-0.5-0.2-0.8-0.5-1c-0.4-0.4-0.9-0.7-1.4-0.7c-1.4,0-2.2,1.1-2.2,2.7c0,1,0.2,1.7,0.6,2.2c0.4,0.4,1,0.6,1.6,0.6
			c0.8,0,1.3-0.3,2-0.9L77.9,36.5z"/>
		<path d="M84.1,37.5v-0.2c0.3,0,0.4,0,0.5-0.1c0.1,0,0.1-0.1,0.1-0.2c0-0.1-0.1-0.4-0.2-0.6l-0.4-0.8h-2.4l-0.4,1
			c0,0.1-0.1,0.3-0.1,0.4c0,0.3,0.2,0.4,0.6,0.4v0.2h-1.8v-0.2c0.5-0.1,0.6-0.2,1.1-1.5l1.9-4.4h0.2l2.2,5.1
			c0.3,0.6,0.4,0.8,0.8,0.8v0.2H84.1z M83,32.7l-1,2.5H84L83,32.7z"/>
		<path d="M93,37.5l-2.1-2.8l-0.5,0v1.7c0,0.7,0.1,0.8,0.8,0.8v0.2h-2.5v-0.2c0.7-0.1,0.8-0.2,0.8-0.9v-3.8c0-0.7-0.1-0.8-0.8-0.8
			v-0.2h2.4c0.9,0,1.5,0.2,1.9,0.5c0.3,0.2,0.4,0.7,0.4,1.1c0,0.8-0.5,1.3-1.6,1.5l1.8,2.3c0.3,0.3,0.5,0.4,0.8,0.4v0.2H93z
			 M90.3,34.4c0.9,0,1.2-0.1,1.6-0.3c0.3-0.2,0.5-0.6,0.5-1c0-0.8-0.5-1.2-1.6-1.2c-0.3,0-0.5,0.1-0.5,0.4V34.4z"/>
		<path d="M101.4,37.5h-4.9v-0.2c0.7,0,0.8-0.2,0.8-0.9v-3.9c0-0.7-0.1-0.8-0.8-0.8v-0.2h4.8l0,1.3h-0.2c-0.1-0.8-0.3-0.9-1.4-0.9
			h-1.2c-0.3,0-0.3,0-0.3,0.3v2h1.4c0.8,0,0.9-0.2,1-0.9h0.2v2.1h-0.2c-0.1-0.8-0.2-0.9-1-0.9h-1.4v2.2c0,0.4,0.2,0.4,0.9,0.4h0.3
			c1.3,0,1.7-0.2,2.1-1.2h0.3L101.4,37.5z"/>
	</g>
	<g id="itCpSf.tif">
	</g>
</g>
</svg>
