<?xml version="1.0" encoding="utf-8"?>
<!-- Generator: Adobe Illustrator 21.0.0, SVG Export Plug-In . SVG Version: 6.00 Build 0)  -->
<svg version="1.1" id="Layer_1" xmlns="http://www.w3.org/2000/svg" xmlns:xlink="http://www.w3.org/1999/xlink" x="0px" y="0px"
	 viewBox="0 0 85.4 42.7" style="enable-background:new 0 0 85.4 42.7;" xml:space="preserve">
<style type="text/css">
	.st0{fill:#424242;}
</style>
<g>
	<path d="M12.9,21.1c-0.5-0.2-1.1-0.3-1.6-0.5c-1.8-0.7-2.7-2.4-2.7-4.2c-0.1-4.3,2.2-7.4,5-10.3c0.7-0.8,1.5-1.5,2.3-2.3
		c-2.2,0.7-3.9,2.1-5.6,3.6c-0.1,0-0.2-0.1-0.3-0.1c0.1-0.3,0.1-0.7,0.3-0.9c1.4-1.8,3.3-3,5.3-4c2.9-1.3,6-1.8,9.1-1.5
		c3,0.3,5.9,1.6,6.8,5c0.7,2.5,0,4.7-1.5,6.8c-2.1,2.9-5,4.8-8.3,6.4c-2.1,1-4.4,1.7-6.7,2.1C14.3,21.1,13.6,21.1,12.9,21.1z
		 M19.4,2.3c0.4,0.5,0.9,0.9,1,1.4c0.2,0.8-0.7,0.6-1.1,0.9c-3.4,1.6-6.1,4.2-8.1,7.3c-0.7,1.1-1.2,2.5-1.4,3.8
		c-0.4,2.3,0.6,3.8,2.9,4.2c1.1,0.2,2.4,0.1,3.5-0.2c4.3-1.2,8-3.5,11-6.9c1.3-1.5,2.3-3.2,2.7-5.2c0.5-2.4-0.4-4.3-2.7-5.2
		C24.6,1.5,21.9,1.7,19.4,2.3z"/>
	<path d="M64.5,18.1c-0.6,0.5-1,0.9-1.4,1.3c-0.5,0.4-0.9,0.8-1.4,1.1c-0.7,0.5-1.6,0.4-2.2-0.2c-0.6-0.5-0.5-1.2-0.2-1.8
		c0.9-1.6,1.8-3.2,2.8-4.7c0.1-0.2,0.2-0.4,0.4-0.6c0-0.1-0.1-0.1-0.1-0.2c-0.7,0.6-1.5,1.1-2.1,1.8c-1.5,1.7-2.9,3.5-4.3,5.3
		c-0.4,0.5-0.7,0.8-1.4,0.6c-0.6-0.2-0.9-0.6-0.5-1.3c0.3-0.6,0.6-1.2,0.9-1.9c-0.3,0.3-0.5,0.6-0.8,0.9c-0.5,0.6-1.1,1.2-1.6,1.9
		c-0.4,0.4-0.8,0.7-1.3,0.3c-0.6-0.4-1.4-0.8-1.2-1.8c0.2-0.9,0.7-1.7,1.1-2.6c-0.2,0.2-0.4,0.2-0.5,0.4c-0.9,1-1.7,2.1-2.6,3
		s-1.6,1.1-2.3,0.8C45,20,44.8,19.2,45,18c0-0.2,0.1-0.4,0.1-0.6c-1.2,1-2.4,1.9-3.5,2.9c-0.9,0.7-1.8,0.7-2.8,0.1s-1.3-1.2-1.1-2.4
		c0-0.3,0.1-0.6,0.2-1.1c-1.1,1-2,1.9-2.9,2.8c-0.2,0.2-0.4,0.4-0.7,0.7c-0.5,0.5-1.1,0.8-1.8,0.3c-0.8-0.5-1.2-1.3-0.7-2.1
		c0.6-1.2,1.4-2.3,2.1-3.4c0.2-0.3,0.5-0.6,0.7-1c-0.7-1.1-1.2-1.2-2.1-0.4c-0.4,0.3-0.7,0.6-1,0.9s-0.7,0.6-1.2,0.8
		c0-0.2,0-0.4,0.1-0.5c0.4-0.5,0.8-0.9,1.2-1.4c0.5-0.7,1-1.4,1.4-2.2c0.5-1,1-2,2.3-2.1c0.9-0.1,1.3,0.4,0.9,1.3
		c-0.2,0.4-0.5,0.8-0.8,1.2c-0.2,0.3-0.4,0.6-0.9,1.1c0.6,0,1.1,0,1.5,0.1c0.5,0.1,1.1,0.1,1.3,0.3c0.3,0.5,0,1-0.5,1.4
		c-1.2,1.1-2.3,2.2-3.4,3.4c-0.4,0.4-0.5,1.1-0.8,1.6c0.1,0.1,0.2,0.2,0.3,0.2c0.5-0.3,1.1-0.5,1.5-0.9c2-1.6,3.8-3.4,5.1-5.7
		c1.9-3.7,4.4-7,7.4-9.8c0.7-0.7,1.6-1.2,2.4-1.7c1-0.5,2.4,0.1,2.7,1.1c0.1,0.3-0.1,0.8-0.4,1.1c-1.5,1.5-3,3.1-4.6,4.5
		c-2,1.8-4.3,3.4-6.2,5.3c-1.4,1.4-1.9,3.3-1.6,5.3c0.1,0.7,0.7,0.8,1.2,0.5c1-0.6,2.1-1.2,3-2c1.8-1.6,3.4-3.4,5.2-4.9
		c1-0.9,2.2-1.7,3.4-2.2c2.1-0.7,3.1,0.9,2.5,2.5c-0.3-0.1-0.6-0.2-0.8-0.4c-0.9-0.6-1.8-0.7-2.8,0c-2.3,1.5-3.9,3.5-4.9,6
		c-0.1,0.2-0.1,0.5-0.1,0.8c0.1,0.1,0.1,0.1,0.2,0.2c0.9-0.6,1.8-1.1,2.5-1.9c1.3-1.3,2.4-2.7,3.5-4.1c0.3-0.4,0.5-0.9,1.1-0.4
		s0.7,1.1,0.3,1.6c-1.2,1.4-1.9,3.1-2.3,4.9c0.1,0.1,0.1,0.1,0.2,0.2c0.4-0.3,0.8-0.7,1.2-1c1.1-1.3,2.1-2.6,3.3-3.8
		c1-0.9,1.7-2,2.4-3.1c0.2-0.3,0.4-0.7,0.3-0.9c-0.3-0.8,0.2-1.1,0.7-1.4c0.4-0.3,0.8-0.5,1.3-0.7c0.7-0.2,1-0.1,1.6,0.6
		c-1.9,2-3.6,4.1-4.8,6.7c2-1.7,3.9-3.3,5.9-5c0.6-0.5,1.3-0.8,2.1-0.8c0.8,0,1.1,0.5,0.8,1.2c-0.2,0.4-0.5,0.7-0.8,1.1
		c-1.3,1.6-2.7,3.2-4,4.9c-0.4,0.6-0.5,1.4-0.6,2.2c1.9-1,3.6-2.1,4.7-3.8c1.1-1.8,2.4-3.5,4.1-4.8c0.5-0.4,1.1-0.7,1.7-0.8
		c0.9-0.2,1.7,0.1,2.3,1.1c0.9-1.4,1.8-2.6,2.6-3.8c0.6-0.9,1.2-1.7,1.9-2.6c0.5-0.6,1.8-0.6,2.3,0c0.1,0.2,0,0.7-0.2,1
		c-0.6,0.7-1.3,1.4-1.9,2c-2.5,2.3-4.2,5.2-5.8,8.2c-0.6,1.1-1.1,2.4-1.6,3.5c0.1,0.1,0.2,0.2,0.3,0.2c1.8-1.7,3.6-3.4,5.4-5.1
		c0.1,0.1,0.2,0.1,0.2,0.2c-0.1,0.2-0.2,0.5-0.3,0.7c-1.5,1.6-3,3.1-4.5,4.7c-0.3,0.3-0.7,0.7-1.3,0.3c-0.6-0.4-1.4-0.9-1.1-1.8
		s0.8-1.8,1.3-2.9c-0.7,0.7-1.2,1.4-1.8,2c-0.6,0.6-1.2,1.2-1.8,1.8c-1.2,1.1-2.1,0.2-2.4-0.8C64.6,18.8,64.6,18.6,64.5,18.1z
		 M66.3,19.3c0.3-0.2,0.5-0.4,0.7-0.6c1.7-1.9,3.4-3.7,5.1-5.6c0.2-0.2,0.4-0.6,0.3-0.7c-0.2-0.2-0.6-0.5-0.9-0.5
		c-0.4,0-0.9,0.2-1.2,0.4c-1.8,1.3-3.3,2.9-4.1,5C66,17.9,65.6,18.6,66.3,19.3z M50.2,3.9c-0.1-0.1-0.2-0.2-0.3-0.3
		c-3,2.4-5.8,5.1-8,8.4C44.7,9.4,47.7,6.9,50.2,3.9z"/>
	<path d="M4.8,26c1.2,0,2.1,0.3,2.7,0.8s0.9,1.2,0.9,2.1c0,1.1-0.4,1.9-1.2,2.4c-0.6,0.4-1.4,0.6-2.3,0.6H2.4v-0.2
		c0.7,0,0.8-0.2,0.8-0.9v-3.9c0-0.7-0.1-0.8-0.8-0.8v-0.2h2.4V26z M4.1,31.2c0,0.3,0.1,0.4,0.4,0.4c0.9,0,1.4-0.1,2-0.5
		s0.9-1.1,0.9-2.2c0-0.9-0.3-1.6-0.9-2.1c-0.5-0.5-1.1-0.6-2-0.6c-0.3,0-0.5,0.1-0.5,0.4v4.6H4.1z"/>
	<path d="M15.7,32h-4.9v-0.2c0.7,0,0.8-0.2,0.8-0.9V27c0-0.7-0.1-0.8-0.8-0.8V26h4.8v1.3h-0.2c-0.1-0.8-0.3-0.9-1.4-0.9h-1.2
		c-0.3,0-0.3,0-0.3,0.3v2h1.4c0.8,0,0.9-0.2,1-0.9h0.2v2.1h-0.2c-0.1-0.8-0.2-0.9-1-0.9h-1.4v2.2c0,0.4,0.2,0.4,0.9,0.4h0.3
		c1.3,0,1.7-0.2,2.1-1.2h0.3L15.7,32z"/>
	<path d="M24.6,26.2c-0.3,0-0.5,0.1-0.6,0.2c-0.2,0.1-0.3,0.3-0.3,1v4.7h-0.2l-4-4.9v3.5c0,0.9,0.1,1.1,0.8,1.2v0.2h-2.1v-0.2
		c0.7-0.1,0.9-0.2,0.9-1.2v-4c-0.3-0.4-0.4-0.5-0.9-0.5V26h1.5l3.5,4.3v-3.1c0-0.5,0-0.7-0.2-0.9c-0.2-0.2-0.3-0.2-0.7-0.2v-0.2h2.1
		v0.3H24.6z"/>
	<path d="M31.8,27.5c-0.2-1-0.4-1.2-1.4-1.2h-0.5v4.6c0,0.7,0.1,0.8,0.9,0.8v0.2h-2.6v-0.2c0.7,0,0.8-0.1,0.8-0.9v-4.5h-0.5
		c-1,0-1.2,0.2-1.4,1.2h-0.2L27,26h5.1l0.1,1.5C32.2,27.5,31.8,27.5,31.8,27.5z"/>
	<path d="M37.8,32v-0.2c0.3,0,0.4,0,0.5-0.1c0.1,0,0.1-0.1,0.1-0.2c0-0.1-0.1-0.4-0.2-0.6l-0.4-0.8h-2.4l-0.4,1
		c0,0.1-0.1,0.3-0.1,0.4c0,0.3,0.2,0.4,0.6,0.4v0.2h-1.8v-0.2c0.5-0.1,0.6-0.2,1.1-1.5l1.9-4.4h0.2l2.2,5.1c0.3,0.6,0.4,0.8,0.8,0.8
		v0.2h-2.1V32z M36.7,27.2l-1,2.5h2L36.7,27.2z"/>
	<path d="M47.1,32h-4.8v-0.2c0.7,0,0.8-0.2,0.8-0.9V27c0-0.7-0.1-0.8-0.8-0.9v-0.2h2.5v0.2c-0.7,0-0.8,0.2-0.8,0.9v4.2
		c0,0.3,0.2,0.4,0.8,0.4h0.6c0.7,0,1.2-0.2,1.5-0.5c0.1-0.2,0.2-0.4,0.4-0.7h0.2L47.1,32z"/>
	<path d="M59.6,31c-0.5,0.7-1.4,1.1-2.5,1.1c-0.8,0-1.6-0.3-2.1-0.8s-0.9-1.4-0.9-2.2c0-0.9,0.3-1.6,0.8-2.2
		c0.6-0.6,1.4-0.9,2.2-0.9c0.4,0,0.7,0,1.1,0.1c0.2,0.1,0.5,0.2,0.6,0.2c0.2,0,0.3-0.1,0.4-0.3h0.2l0.1,2h-0.2
		c-0.1-0.5-0.2-0.8-0.5-1c-0.4-0.4-0.9-0.7-1.4-0.7c-1.4,0-2.2,1.1-2.2,2.7c0,1,0.2,1.7,0.6,2.2c0.4,0.4,1,0.6,1.6,0.6
		c0.8,0,1.3-0.3,2-0.9L59.6,31z"/>
	<path d="M65.8,32v-0.2c0.3,0,0.4,0,0.5-0.1c0.1,0,0.1-0.1,0.1-0.2c0-0.1-0.1-0.4-0.2-0.6l-0.4-0.8h-2.4l-0.4,1
		c0,0.1-0.1,0.3-0.1,0.4c0,0.3,0.2,0.4,0.6,0.4v0.2h-1.8v-0.2c0.5-0.1,0.6-0.2,1.1-1.5l1.9-4.4h0.2l2.2,5.1c0.3,0.6,0.4,0.8,0.8,0.8
		v0.2h-2.1V32z M64.7,27.2l-1,2.5h2L64.7,27.2z"/>
	<path d="M74.7,32l-2.1-2.8h-0.5v1.7c0,0.7,0.1,0.8,0.8,0.8v0.2h-2.5v-0.2c0.7-0.1,0.8-0.2,0.8-0.9V27c0-0.7-0.1-0.8-0.8-0.8V26h2.4
		c0.9,0,1.5,0.2,1.9,0.5c0.3,0.2,0.4,0.7,0.4,1.1c0,0.8-0.5,1.3-1.6,1.5l1.8,2.3c0.3,0.3,0.5,0.4,0.8,0.4V32H74.7z M72,28.9
		c0.9,0,1.2-0.1,1.6-0.3c0.3-0.2,0.5-0.6,0.5-1c0-0.8-0.5-1.2-1.6-1.2c-0.3,0-0.5,0.1-0.5,0.4V28.9z"/>
	<path d="M83.1,32h-4.9v-0.2c0.7,0,0.8-0.2,0.8-0.9V27c0-0.7-0.1-0.8-0.8-0.8V26H83v1.3h-0.2c-0.1-0.8-0.3-0.9-1.4-0.9h-1.2
		c-0.3,0-0.3,0-0.3,0.3v2h1.4c0.8,0,0.9-0.2,1-0.9h0.2v2.1h-0.2c-0.1-0.8-0.2-0.9-1-0.9h-1.4v2.2c0,0.4,0.2,0.4,0.9,0.4h0.3
		c1.3,0,1.7-0.2,2.1-1.2h0.3L83.1,32z"/>
</g>
<g>
	<path class="st0" d="M9.5,41.7C9.5,41.7,9.5,41.7,9.5,41.7l-2.9,0c0,0,0,0,0,0v-0.1c0,0,0.1,0,0.2,0c0.1,0,0.3-0.1,0.5-0.2
		s0.3-0.3,0.3-0.5v-5.4c0-0.4-0.3-0.6-1-0.6c0,0,0,0,0,0v-0.1c0,0,0,0,0,0h2.9c0,0,0,0,0,0v0.1c0,0-0.1,0-0.2,0
		c-0.1,0-0.3,0-0.4,0.1c-0.2,0.1-0.3,0.3-0.3,0.5v2.2c0,0.3,0,0.4,0.1,0.4c0.1,0,0.3-0.1,0.5-0.3s0.4-0.4,0.6-0.6
		c0.2-0.2,0.3-0.4,0.5-0.7s0.3-0.4,0.4-0.5c0.2-0.3,0.4-0.6,0.4-0.8S10.9,35,10.7,35c-0.1,0-0.2-0.1-0.4-0.1h0c0,0,0,0,0,0v-0.1
		c0,0,0,0,0,0h2.8c0,0,0,0,0,0v0.1c0,0,0,0.1-0.1,0.1c-0.4,0-0.7,0.1-0.9,0.2s-0.3,0.2-0.5,0.3c-0.1,0.1-0.2,0.3-0.4,0.5
		c-0.4,0.7-0.8,1.3-1.3,1.7C9.9,37.8,9.8,38,9.8,38c0,0,0.2,0.2,0.4,0.4c0.6,0.6,1.3,1.4,2,2.3c0.3,0.4,0.6,0.6,1,0.7
		c0.3,0.1,0.5,0.1,0.5,0.1s0.1,0,0.1,0v0.1c0,0,0,0,0,0h-3.2c0,0,0,0,0,0v-0.1c0,0,0.1,0,0.2-0.1c0.4,0,0.6-0.1,0.6-0.3
		c0-0.2-0.4-0.6-1-1.4c-0.1-0.1-0.2-0.3-0.4-0.4c-0.5-0.6-0.9-0.9-1.2-0.9H8.6c0,0,0,0,0,0.1v2.3c0,0.5,0.3,0.7,0.9,0.7
		C9.5,41.5,9.5,41.5,9.5,41.7L9.5,41.7z"/>
	<path class="st0" d="M14.3,41.7c-0.1,0-0.1,0-0.1-0.1v-0.1c0-0.1,0.1-0.1,0.2-0.1c0.2,0,0.3-0.1,0.4-0.1c0.1-0.1,0.1-0.2,0.1-0.3
		v-0.7c0,0,0,0,0,0l-1.4-2.4c-0.2-0.3-0.4-0.4-0.8-0.5c0,0-0.1,0-0.1,0s0,0-0.1,0c0,0,0,0,0-0.1s0-0.1,0-0.1h2c0,0,0.1,0,0.1,0.1
		s0,0.1-0.1,0.1c-0.2,0-0.3,0.1-0.3,0.1c0,0-0.1,0.1-0.1,0.1s0,0.1,0,0.1l1,1.7c0,0.1,0.1,0.1,0.1,0.1c0,0,0.1,0,0.1-0.1l0.9-1.5
		c0,0,0,0,0-0.1c0-0.1,0.1-0.1,0.1-0.2c0-0.1,0-0.2-0.1-0.2s-0.1-0.1-0.2-0.1c-0.1,0-0.1,0-0.1-0.1c0,0,0-0.1,0-0.1
		c0,0,0-0.1,0.1-0.1h1.5c0.1,0,0.1,0,0.1,0.1c0,0.1-0.1,0.1-0.2,0.2c-0.2,0-0.3,0.1-0.4,0.1s-0.2,0.1-0.2,0.2l-1.2,2.2V41
		c0,0.1,0,0.2,0.1,0.3c0.1,0.1,0.2,0.1,0.3,0.1c0.1,0,0.2,0,0.2,0.1v0.1c0,0,0,0.1-0.1,0.1H14.3z"/>
	<path class="st0" d="M17.9,41.7C17.9,41.7,17.9,41.7,17.9,41.7l0-0.2c0,0,0,0,0,0H18c0.3,0,0.5-0.1,0.6-0.3c0-0.1,0.1-0.1,0.1-0.2
		v-3.3c0-0.1-0.1-0.2-0.2-0.3c-0.2-0.1-0.3-0.1-0.4-0.1h-0.1c0,0,0,0,0,0v-0.2c0,0,0,0,0,0h2.4c0,0,0,0,0,0v0.2c0,0,0,0,0,0h-0.1
		c-0.2,0-0.4,0-0.6,0.1c0,0-0.1,0-0.1,0.1s0,0.1,0,0.2v3.5c0,0,0,0.1,0.1,0.1c0,0,0.1,0,0.1,0h1.3c0.2,0,0.5-0.2,0.8-0.6
		c0.1-0.1,0.1-0.2,0.2-0.2c0,0,0.1,0,0.1,0c0.1,0,0.1,0,0.1,0.1c0,0-0.1,0.2-0.2,0.4s-0.2,0.4-0.3,0.7c0,0,0,0.1-0.1,0.1H17.9z"/>
	<path class="st0" d="M25.6,40c0-0.3-0.2-0.5-0.5-0.5H24c0,0,0,0,0,0V41c0,0.2,0.1,0.3,0.2,0.3c0,0,0.1,0,0.1,0h1.1
		c0.2,0,0.4-0.1,0.5-0.2c0.1-0.2,0.2-0.3,0.2-0.5c0-0.1,0.1-0.1,0.1-0.1c0,0,0,0,0.1,0c0,0,0.1,0,0.1,0l-0.1,1.1c0,0,0,0,0,0h-3.9
		c0,0,0,0,0,0v-0.2c0,0,0,0,0,0h0.1c0.1,0,0.2,0,0.3,0c0.4,0,0.5-0.2,0.5-0.4v-3.3c0-0.2-0.1-0.4-0.4-0.4c-0.1,0-0.1,0-0.2,0h-0.1
		c0,0,0,0,0,0v-0.2c0,0,0,0,0,0h3.4c0.1,0,0.1,0,0.1,0.1l0.1,1c0,0,0,0-0.1,0c-0.1,0-0.1,0-0.1,0c0,0,0-0.1,0-0.1
		c0-0.3-0.2-0.5-0.4-0.6h-1.4c0,0,0,0,0,0v1.6c0,0,0,0,0,0h1.1c0.3,0,0.4-0.2,0.4-0.5c0,0,0,0,0,0h0.2c0,0,0,0,0,0V40c0,0,0,0,0,0
		h-0.2C25.6,40.1,25.6,40,25.6,40z"/>
	<path class="st0" d="M31.5,41.5C31.5,41.5,31.5,41.5,31.5,41.5l0.2,0c0.3,0,0.6-0.1,0.8-0.2c0.2-0.1,0.3-0.3,0.3-0.5v-5.4
		c0-0.1,0-0.1,0-0.1c0,0-0.1,0-0.1,0h-1.9c-0.3,0.1-0.5,0.3-0.6,0.7c-0.1,0.2-0.1,0.4-0.1,0.4c0,0.1,0,0.1-0.1,0.1h-0.1c0,0,0,0,0,0
		v-0.2l0.2-1.5c0-0.1,0.1-0.2,0.1-0.2s0.1,0,0.1,0.1c0.1,0.1,0.2,0.1,0.3,0.1h5.3c0.1,0,0.2,0,0.3,0c0,0,0.1-0.1,0.1-0.1
		c0,0,0.1,0,0.1,0s0.1,0,0.1,0c0,0,0,0.1,0,0.1l0.2,1.5v0.2c0,0,0,0,0,0h-0.1c0,0,0,0-0.1-0.1c-0.1-0.3-0.1-0.6-0.2-0.8
		c-0.1-0.2-0.3-0.3-0.5-0.4h-1.9c0,0-0.1,0-0.1,0c0,0,0,0,0,0.1v5.4c0,0.2,0.1,0.3,0.3,0.5c0.2,0.1,0.5,0.2,0.8,0.2h0.1c0,0,0,0,0,0
		v0.1c0,0,0,0,0,0h-3.4c0,0,0,0,0,0V41.5z"/>
	<path class="st0" d="M37.1,41.5C37.2,41.5,37.2,41.5,37.1,41.5l0,0.2c0,0,0,0,0,0h-1.7c0,0,0,0,0,0v-0.2c0,0,0,0,0,0
		c0.3,0,0.5-0.2,0.6-0.5l1.3-3.8l0-0.1c0,0,0,0,0,0h0.9c0,0,0,0,0,0c0,0,0,0,0,0l1.4,3.8c0.1,0.4,0.4,0.6,0.7,0.6c0,0,0,0,0,0v0.2
		c0,0,0,0,0,0h-2.2c0,0,0,0,0,0v-0.2c0,0,0,0,0,0h0c0,0,0.1,0,0.2,0c0.3,0,0.5-0.1,0.5-0.3l0,0l-0.4-1.1c0,0,0,0,0-0.1
		c0,0-0.1-0.1-0.1-0.1h-1.2c-0.1,0-0.1,0-0.2,0.1c0,0,0,0,0,0l-0.4,1.2c0,0.1,0.1,0.2,0.3,0.3C36.8,41.4,36.9,41.5,37.1,41.5
		L37.1,41.5z M38.2,39.4C38.2,39.4,38.3,39.4,38.2,39.4c0.1-0.1,0.1-0.1,0-0.1l-0.5-1.5c0-0.1,0-0.1,0-0.1c0,0,0,0-0.1,0.1l-0.5,1.5
		c0,0,0,0,0,0c0,0,0,0,0,0c0,0,0,0,0.1,0H38.2z"/>
	<path class="st0" d="M43.9,37.5c0-0.2-0.1-0.3-0.4-0.3h0c0,0,0,0,0,0v-0.2c0,0,0,0,0,0h2c0,0,0,0,0,0v0.2c0,0-0.1,0-0.3,0
		s-0.3,0-0.5,0.1s-0.3,0.2-0.4,0.4c-0.3,0.6-0.7,1-1,1.3c0,0-0.1,0.1-0.1,0.1c0,0,0.1,0.1,0.1,0.1c0.4,0.3,0.9,0.9,1.4,1.6
		c0.1,0.2,0.4,0.3,0.7,0.4c0.1,0,0.1,0,0.2,0c0.1,0,0.1,0,0.1,0h0.1c0,0,0,0,0,0v0.2c0,0,0,0,0,0h-2.3c0,0,0,0,0,0v-0.2c0,0,0,0,0,0
		c0.2,0,0.4-0.1,0.4-0.2c0-0.2-0.2-0.5-0.6-1c-0.2-0.2-0.3-0.4-0.4-0.4c-0.2-0.2-0.4-0.3-0.6-0.3h-0.1c0,0,0,0,0,0V41
		c0,0.3,0.2,0.5,0.6,0.5c0,0,0,0,0,0v0.2c0,0,0,0,0,0h-2.1c0,0,0,0,0,0v-0.2c0,0,0,0,0.1,0c0.1,0,0.2,0,0.3-0.1
		c0.1-0.1,0.2-0.2,0.2-0.3v-3.4c0-0.3-0.2-0.4-0.7-0.4c0,0,0,0,0,0v-0.2c0,0,0,0,0,0h2.1c0,0,0,0,0,0v0.2c0,0,0,0-0.1,0
		c-0.1,0-0.2,0-0.3,0.1c-0.1,0.1-0.2,0.2-0.2,0.3V39c0,0.2,0,0.3,0,0.3c0,0,0.1,0,0.1,0c0.5-0.2,0.9-0.7,1.4-1.5
		C43.8,37.7,43.9,37.6,43.9,37.5z"/>
	<path class="st0" d="M46.1,41.7C46.1,41.7,46,41.7,46.1,41.7l0-0.2c0,0,0,0,0,0h0.1c0.3,0,0.5-0.1,0.6-0.3c0-0.1,0.1-0.1,0.1-0.2
		v-3.3c0-0.1-0.1-0.2-0.2-0.3c-0.2-0.1-0.3-0.1-0.4-0.1h-0.1c0,0,0,0,0,0v-0.2c0,0,0,0,0,0h2.4c0,0,0,0,0,0v0.2c0,0,0,0,0,0h-0.1
		c-0.2,0-0.4,0-0.6,0.1c0,0-0.1,0-0.1,0.1c0,0,0,0.1,0,0.2v3.5c0,0,0,0.1,0.1,0.1c0,0,0.1,0,0.1,0h1.3c0.2,0,0.5-0.2,0.8-0.6
		c0.1-0.1,0.1-0.2,0.2-0.2c0,0,0.1,0,0.1,0c0.1,0,0.1,0,0.1,0.1c0,0-0.1,0.2-0.2,0.4s-0.2,0.4-0.3,0.7c0,0,0,0.1-0.1,0.1H46.1z"/>
	<path class="st0" d="M52,41.5C52,41.5,52,41.5,52,41.5l0,0.2c0,0,0,0,0,0h-1.7c0,0,0,0,0,0v-0.2c0,0,0,0,0,0c0.3,0,0.5-0.2,0.6-0.5
		l1.3-3.8l0-0.1c0,0,0,0,0,0h0.9c0,0,0,0,0,0c0,0,0,0,0,0l1.4,3.8c0.1,0.4,0.4,0.6,0.7,0.6c0,0,0,0,0,0v0.2c0,0,0,0,0,0H53
		c0,0,0,0,0,0v-0.2c0,0,0,0,0,0h0c0,0,0.1,0,0.2,0c0.3,0,0.5-0.1,0.5-0.3l0,0l-0.4-1.1c0,0,0,0,0-0.1c0,0-0.1-0.1-0.1-0.1h-1.2
		c-0.1,0-0.1,0-0.2,0.1c0,0,0,0,0,0l-0.4,1.2c0,0.1,0.1,0.2,0.3,0.3C51.7,41.4,51.8,41.5,52,41.5L52,41.5z M53,39.4
		C53.1,39.4,53.1,39.4,53,39.4c0.1-0.1,0.1-0.1,0-0.1l-0.5-1.5c0-0.1,0-0.1,0-0.1s0,0-0.1,0.1L52,39.3c0,0,0,0,0,0c0,0,0,0,0,0
		c0,0,0,0,0.1,0H53z"/>
	<path class="st0" d="M56.5,41.5c0,0.4-0.2,0.8-0.6,1.1c-0.1,0.1-0.2,0.1-0.2,0.1c0,0-0.1,0-0.1-0.1c0,0,0-0.1,0.1-0.1
		s0.1-0.1,0.1-0.1c0.2-0.2,0.3-0.4,0.3-0.6c0-0.1,0-0.1,0-0.1s-0.1,0-0.2,0s-0.2,0-0.3-0.1c-0.1-0.1-0.1-0.2-0.1-0.3s0-0.2,0.1-0.3
		c0.1-0.1,0.2-0.1,0.3-0.1c0.2,0,0.3,0.1,0.4,0.2C56.5,41.2,56.5,41.4,56.5,41.5z"/>
	<path class="st0" d="M59.9,37.2C59.9,37.2,59.9,37.2,59.9,37.2l0-0.2c0,0,0,0,0,0l1.3-0.1c0.4,0,0.7,0,0.9,0c1,0,1.6,0.1,2.1,0.4
		c0.4,0.3,0.7,0.7,0.9,1.2c0.1,0.2,0.1,0.5,0.1,0.8S65.1,40,65,40.2s-0.3,0.6-0.6,0.8c-0.5,0.5-1.1,0.7-1.8,0.7h-2.7c0,0,0,0,0,0
		v-0.2c0,0,0,0,0,0H60c0.4,0,0.6-0.1,0.6-0.4v-3.5c0-0.2-0.1-0.3-0.3-0.3c-0.1,0-0.1,0-0.2,0H59.9z M61.4,41.1
		c0,0.2,0.2,0.2,0.5,0.3c0.1,0,0.2,0,0.5,0s0.5,0,0.7-0.1c0.8-0.3,1.3-0.9,1.3-1.9c0-0.6-0.2-1.1-0.5-1.5c-0.4-0.4-0.8-0.6-1.4-0.6
		h-0.9c-0.1,0-0.1,0-0.1,0.1V41.1z"/>
	<path class="st0" d="M66.6,41.4c0.1,0,0.1,0,0.2,0c0,0,0.1,0,0.1,0v0.2c0,0,0,0,0,0h-1.6c0,0,0,0,0,0v-0.2c0,0,0,0,0,0
		c0.4,0,0.6-0.2,0.6-0.5c0-0.1,0-0.2,0-0.3l0.2-3.1c0-0.1-0.1-0.2-0.3-0.3c0,0-0.1,0-0.1,0c0,0,0,0,0,0v-0.2c0,0,0,0,0,0h1.2
		c0,0,0.1,0,0.1,0.1l1.5,3.4c0.1,0.1,0.1,0.1,0.1,0l1.5-3.4c0.1-0.1,0.1-0.1,0.1-0.1h1.2c0,0,0,0,0,0v0.2c0,0,0,0-0.1,0
		c0,0-0.1,0-0.2,0.1s-0.2,0.1-0.2,0.3l0.2,3.4c0,0.2,0.1,0.3,0.3,0.3c0.1,0,0.2,0,0.2,0s0.1,0,0.1,0v0.2c0,0,0,0,0,0h-2c0,0,0,0,0,0
		v-0.2c0,0,0,0,0,0c0.4,0,0.6-0.1,0.6-0.3l-0.2-3c0,0,0,0,0,0s0,0,0,0l-1.6,3.6c0,0,0,0-0.1,0h-0.1c-0.1,0-0.2,0-0.2,0l-1.6-3.6
		c0,0,0,0,0,0c0,0,0,0,0,0l-0.2,3.1v0C66.2,41.3,66.4,41.4,66.6,41.4z"/>
	<path class="st0" d="M72.3,37.2C72.3,37.2,72.3,37.2,72.3,37.2l0-0.2c0,0,0,0,0,0l1.3-0.1c0.4,0,0.7,0,0.9,0c1,0,1.6,0.1,2.1,0.4
		s0.7,0.7,0.9,1.2c0.1,0.2,0.1,0.5,0.1,0.8s-0.1,0.6-0.2,0.9S77,40.8,76.8,41c-0.5,0.5-1.1,0.7-1.8,0.7h-2.7c0,0,0,0,0,0v-0.2
		c0,0,0,0,0,0h0.1c0.4,0,0.6-0.1,0.6-0.4v-3.5c0-0.2-0.1-0.3-0.3-0.3c-0.1,0-0.1,0-0.2,0H72.3z M73.8,41.1c0,0.2,0.2,0.2,0.5,0.3
		c0.1,0,0.2,0,0.5,0s0.5,0,0.7-0.1c0.8-0.3,1.3-0.9,1.3-1.9c0-0.6-0.2-1.1-0.5-1.5c-0.4-0.4-0.8-0.6-1.4-0.6h-0.9
		c-0.1,0-0.1,0-0.1,0.1V41.1z"/>
</g>
</svg>
